<?xml version="1.0" encoding="utf-8"?>
<!-- Generator: Adobe Illustrator 21.1.0, SVG Export Plug-In . SVG Version: 6.00 Build 0)  -->
<svg version="1.1" id="图层_1" xmlns="http://www.w3.org/2000/svg" xmlns:xlink="http://www.w3.org/1999/xlink" x="0px" y="0px"
	 viewBox="0 0 1125 2436" style="enable-background:new 0 0 1125 2436;" xml:space="preserve">
<style type="text/css">
	.st0{fill:#040404;}
</style>
<g>
	<g>
		<path class="st0" d="M257.5,874v-30h6.7v26.7h10v3.3H257.5z"/>
		<path class="st0" d="M287.5,850.7h6.7c1.8,0,3.4,0.7,4.7,2c1.3,1.3,2,2.9,2,4.7v10c0,1.8-0.7,3.4-2,4.7c-1.3,1.3-2.9,2-4.7,2h-6.7
			c-1.8,0-3.4-0.7-4.7-2c-1.3-1.3-2-2.9-2-4.7v-10c0-1.8,0.7-3.4,2-4.7C284.1,851.3,285.7,850.7,287.5,850.7z M287.5,857.3v10
			c0,0.9,0.3,1.7,1,2.3c0.7,0.7,1.4,1,2.4,1c0.9,0,1.7-0.3,2.4-1c0.7-0.7,1-1.4,1-2.3v-10c0-0.9-0.3-1.7-1-2.4c-0.7-0.7-1.4-1-2.4-1
			c-0.9,0-1.7,0.3-2.4,1S287.5,856.4,287.5,857.3z"/>
		<path class="st0" d="M307.5,874v-23.3h6.7v3.3c0.1-1.1,0.5-2,1-2.5c0.6-0.6,1.3-0.8,2.3-0.8h3.3c1.8,0,3.4,0.7,4.7,2
			c1.3,1.3,2,2.9,2,4.7V874h-6.7v-16.7c0-0.9-0.3-1.7-1-2.4c-0.7-0.7-1.4-1-2.4-1c-0.9,0-1.7,0.3-2.4,1s-1,1.4-1,2.4V874H307.5z"/>
		<path class="st0" d="M354.1,850.7v26.7c0,1.8-0.7,3.4-2,4.7c-1.3,1.3-2.9,2-4.7,2h-6.7c-3.9,0-6.1-2.2-6.7-6.7h3.3
			c0.2,2.2,1.3,3.3,3.3,3.3h3.3c0.9,0,1.7-0.3,2.4-1c0.7-0.7,1-1.4,1-2.3v-6.7c-0.3,2.2-1.4,3.3-3.3,3.3h-3.3c-1.8,0-3.4-0.7-4.7-2
			c-1.3-1.3-2-2.9-2-4.7v-10c0-1.8,0.7-3.4,2-4.7c1.3-1.3,2.9-2,4.7-2H354.1z M347.5,854h-3.3c-0.9,0-1.7,0.3-2.4,1s-1,1.4-1,2.4v10
			c0,0.9,0.3,1.7,1,2.3c0.7,0.7,1.4,1,2.4,1c0.9,0,1.7-0.3,2.4-1c0.7-0.7,1-1.4,1-2.3V854z"/>
		<path class="st0" d="M370.6,874v-30h6.7v30H370.6z"/>
		<path class="st0" d="M390.6,850.7h6.7c1.8,0,3.4,0.7,4.7,2c1.3,1.3,2,2.9,2,4.7v10c0,1.8-0.7,3.4-2,4.7c-1.3,1.3-2.9,2-4.7,2h-6.7
			c-1.8,0-3.4-0.7-4.7-2c-1.3-1.3-2-2.9-2-4.7v-10c0-1.8,0.7-3.4,2-4.7C387.2,851.3,388.8,850.7,390.6,850.7z M390.6,857.3v10
			c0,0.9,0.3,1.7,1,2.3c0.7,0.7,1.4,1,2.4,1c0.9,0,1.7-0.3,2.4-1c0.7-0.7,1-1.4,1-2.3v-10c0-0.9-0.3-1.7-1-2.4c-0.7-0.7-1.4-1-2.4-1
			c-0.9,0-1.7,0.3-2.4,1S390.6,856.4,390.6,857.3z"/>
		<path class="st0" d="M410.6,874v-23.3h6.7v3.3c0.1-1.1,0.5-2,1-2.5c0.6-0.6,1.3-0.8,2.3-0.8h3.3c1.8,0,3.4,0.7,4.7,2
			c1.3,1.3,2,2.9,2,4.7V874h-6.7v-16.7c0-0.9-0.3-1.7-1-2.4c-0.7-0.7-1.4-1-2.4-1c-0.9,0-1.7,0.3-2.4,1s-1,1.4-1,2.4V874H410.6z"/>
		<path class="st0" d="M457.2,850.7v26.7c0,1.8-0.7,3.4-2,4.7c-1.3,1.3-2.9,2-4.7,2h-6.7c-3.9,0-6.1-2.2-6.7-6.7h3.3
			c0.2,2.2,1.3,3.3,3.3,3.3h3.3c0.9,0,1.7-0.3,2.4-1c0.7-0.7,1-1.4,1-2.3v-6.7c-0.3,2.2-1.4,3.3-3.3,3.3h-3.3c-1.8,0-3.4-0.7-4.7-2
			c-1.3-1.3-2-2.9-2-4.7v-10c0-1.8,0.7-3.4,2-4.7c1.3-1.3,2.9-2,4.7-2H457.2z M450.6,854h-3.3c-0.9,0-1.7,0.3-2.4,1s-1,1.4-1,2.4v10
			c0,0.9,0.3,1.7,1,2.3c0.7,0.7,1.4,1,2.4,1c0.9,0,1.7-0.3,2.4-1c0.7-0.7,1-1.4,1-2.3V854z"/>
		<path class="st0" d="M487,860.7v-3.3c0-0.9-0.3-1.7-1-2.4c-0.7-0.7-1.4-1-2.4-1h-3.3c-2,0-3.1,1.1-3.3,3.3h-3.3
			c0.5-4.5,2.7-6.7,6.7-6.7h6.7c1.8,0,3.4,0.7,4.7,2c1.3,1.3,2,2.9,2,4.7V874H487v-3.3c-0.3,2.2-1.4,3.3-3.3,3.3h-3.3
			c-1.8,0-3.4-0.7-4.7-2c-1.3-1.3-2-2.9-2-4.7v0c0-1.8,0.7-3.4,2-4.7c1.3-1.3,2.9-2,4.7-2H487z M487,864h-3.3c-0.9,0-1.7,0.3-2.4,1
			c-0.7,0.7-1,1.4-1,2.3v0c0,0.9,0.3,1.7,1,2.3c0.7,0.7,1.4,1,2.4,1c0.9,0,1.7-0.3,2.4-1c0.7-0.7,1-1.4,1-2.3V864z"/>
		<path class="st0" d="M520.3,850.7v26.7c0,1.8-0.7,3.4-2,4.7c-1.3,1.3-2.9,2-4.7,2H507c-3.9,0-6.1-2.2-6.7-6.7h3.3
			c0.2,2.2,1.3,3.3,3.3,3.3h3.3c0.9,0,1.7-0.3,2.4-1c0.7-0.7,1-1.4,1-2.3v-6.7c-0.3,2.2-1.4,3.3-3.3,3.3H507c-1.8,0-3.4-0.7-4.7-2
			c-1.3-1.3-2-2.9-2-4.7v-10c0-1.8,0.7-3.4,2-4.7c1.3-1.3,2.9-2,4.7-2H520.3z M513.6,854h-3.3c-0.9,0-1.7,0.3-2.4,1s-1,1.4-1,2.4v10
			c0,0.9,0.3,1.7,1,2.3c0.7,0.7,1.4,1,2.4,1c0.9,0,1.7-0.3,2.4-1c0.7-0.7,1-1.4,1-2.3V854z"/>
		<path class="st0" d="M533.6,850.7h6.7c1.8,0,3.4,0.7,4.7,2c1.3,1.3,2,2.9,2,4.7v10c0,1.8-0.7,3.4-2,4.7c-1.3,1.3-2.9,2-4.7,2h-6.7
			c-1.8,0-3.4-0.7-4.7-2c-1.3-1.3-2-2.9-2-4.7v-10c0-1.8,0.7-3.4,2-4.7C530.2,851.3,531.8,850.7,533.6,850.7z M533.6,857.3v10
			c0,0.9,0.3,1.7,1,2.3c0.7,0.7,1.4,1,2.4,1c0.9,0,1.7-0.3,2.4-1c0.7-0.7,1-1.4,1-2.3v-10c0-0.9-0.3-1.7-1-2.4c-0.7-0.7-1.4-1-2.4-1
			c-0.9,0-1.7,0.3-2.4,1S533.6,856.4,533.6,857.3z"/>
		<path class="st0" d="M553.6,867.3h6.7v6.7c0,3.9-2.2,6.2-6.7,6.7v-3.3c2.1-0.1,3.3-1.2,3.3-3.3h-3.3V867.3z"/>
		<path class="st0" d="M580.1,874v-20h-3.3v-3.3h3.3v-0.3c0-1.7,0.6-3.2,1.9-4.5s2.7-1.9,4.5-1.9h7v3.3h-3.6c-0.8,0-1.5,0.3-2.1,0.9
			c-0.6,0.6-0.9,1.3-0.9,2.1v0.3h3.3v3.3h-3.3v20H580.1z"/>
		<path class="st0" d="M610.1,860.7v-3.3c0-0.9-0.3-1.7-1-2.4c-0.7-0.7-1.4-1-2.4-1h-3.3c-2,0-3.1,1.1-3.3,3.3h-3.3
			c0.5-4.5,2.7-6.7,6.7-6.7h6.7c1.8,0,3.4,0.7,4.7,2c1.3,1.3,2,2.9,2,4.7V874h-6.7v-3.3c-0.3,2.2-1.4,3.3-3.3,3.3h-3.3
			c-1.8,0-3.4-0.7-4.7-2c-1.3-1.3-2-2.9-2-4.7v0c0-1.8,0.7-3.4,2-4.7c1.3-1.3,2.9-2,4.7-2H610.1z M610.1,864h-3.3
			c-0.9,0-1.7,0.3-2.4,1c-0.7,0.7-1,1.4-1,2.3v0c0,0.9,0.3,1.7,1,2.3c0.7,0.7,1.4,1,2.4,1c0.9,0,1.7-0.3,2.4-1c0.7-0.7,1-1.4,1-2.3
			V864z"/>
		<path class="st0" d="M630,874h-6.7v-23.3h6.7v6.7c0.3-2.2,0.9-3.9,2.1-5c1.1-1.1,2.7-1.7,4.6-1.7h3.3v6.7h-6.7
			c-0.9,0-1.7,0.3-2.4,1c-0.7,0.7-1,1.4-1,2.3V874z"/>
		<path class="st0" d="M656.5,874v-20h-3.3v-3.3h3.3v-0.3c0-1.7,0.6-3.2,1.9-4.5s2.7-1.9,4.5-1.9h7v3.3h-3.6c-0.8,0-1.5,0.3-2.1,0.9
			c-0.6,0.6-0.9,1.3-0.9,2.1v0.3h3.3v3.3h-3.3v20H656.5z"/>
		<path class="st0" d="M686.5,860.7v-3.3c0-0.9-0.3-1.7-1-2.4c-0.7-0.7-1.4-1-2.4-1h-3.3c-2,0-3.1,1.1-3.3,3.3h-3.3
			c0.5-4.5,2.7-6.7,6.7-6.7h6.7c1.8,0,3.4,0.7,4.7,2c1.3,1.3,2,2.9,2,4.7V874h-6.7v-3.3c-0.3,2.2-1.4,3.3-3.3,3.3h-3.3
			c-1.8,0-3.4-0.7-4.7-2c-1.3-1.3-2-2.9-2-4.7v0c0-1.8,0.7-3.4,2-4.7c1.3-1.3,2.9-2,4.7-2H686.5z M686.5,864h-3.3
			c-0.9,0-1.7,0.3-2.4,1c-0.7,0.7-1,1.4-1,2.3v0c0,0.9,0.3,1.7,1,2.3c0.7,0.7,1.4,1,2.4,1c0.9,0,1.7-0.3,2.4-1c0.7-0.7,1-1.4,1-2.3
			V864z"/>
		<path class="st0" d="M706.5,874h-6.7v-23.3h6.7v6.7c0.3-2.2,0.9-3.9,2.1-5c1.1-1.1,2.7-1.7,4.6-1.7h3.3v6.7h-6.7
			c-0.9,0-1.7,0.3-2.4,1c-0.7,0.7-1,1.4-1,2.3V874z"/>
		<path class="st0" d="M742.9,860.7v-3.3c0-0.9-0.3-1.7-1-2.4c-0.7-0.7-1.4-1-2.4-1h-3.3c-2,0-3.1,1.1-3.3,3.3h-3.3
			c0.5-4.5,2.7-6.7,6.7-6.7h6.7c1.8,0,3.4,0.7,4.7,2c1.3,1.3,2,2.9,2,4.7V874h-6.7v-3.3c-0.3,2.2-1.4,3.3-3.3,3.3h-3.3
			c-1.8,0-3.4-0.7-4.7-2c-1.3-1.3-2-2.9-2-4.7v0c0-1.8,0.7-3.4,2-4.7c1.3-1.3,2.9-2,4.7-2H742.9z M742.9,864h-3.3
			c-0.9,0-1.7,0.3-2.4,1c-0.7,0.7-1,1.4-1,2.3v0c0,0.9,0.3,1.7,1,2.3c0.7,0.7,1.4,1,2.4,1c0.9,0,1.7-0.3,2.4-1c0.7-0.7,1-1.4,1-2.3
			V864z"/>
		<path class="st0" d="M756.2,850.7h6.7v20h3.3c0.9,0,1.7-0.3,2.4-1c0.7-0.7,1-1.4,1-2.3v-16.7h6.7v20h3.3c0.9,0,1.7-0.3,2.3-1
			c0.7-0.7,1-1.4,1-2.3v-16.7h6.7v12c0,3.1-1.1,5.8-3.4,8c-2.2,2.2-4.9,3.4-8,3.4h-8.6v-1.1c-1.3,0.7-2.9,1.1-4.7,1.1h-8.6V850.7z"
			/>
		<path class="st0" d="M809.6,860.7v-3.3c0-0.9-0.3-1.7-1-2.4c-0.7-0.7-1.4-1-2.4-1h-3.3c-2,0-3.1,1.1-3.3,3.3h-3.3
			c0.5-4.5,2.7-6.7,6.7-6.7h6.7c1.8,0,3.4,0.7,4.7,2c1.3,1.3,2,2.9,2,4.7V874h-6.7v-3.3c-0.3,2.2-1.4,3.3-3.3,3.3h-3.3
			c-1.8,0-3.4-0.7-4.7-2c-1.3-1.3-2-2.9-2-4.7v0c0-1.8,0.7-3.4,2-4.7c1.3-1.3,2.9-2,4.7-2H809.6z M809.6,864h-3.3
			c-0.9,0-1.7,0.3-2.4,1c-0.7,0.7-1,1.4-1,2.3v0c0,0.9,0.3,1.7,1,2.3c0.7,0.7,1.4,1,2.4,1c0.9,0,1.7-0.3,2.4-1c0.7-0.7,1-1.4,1-2.3
			V864z"/>
		<path class="st0" d="M826.2,877.3c0.2,2.2,1.3,3.3,3.3,3.3h3.3c0.9,0,1.7-0.3,2.4-1c0.7-0.7,1-1.4,1-2.3v-6.7
			c-0.3,2.2-1.4,3.3-3.3,3.3h-3.3c-1.8,0-3.4-0.7-4.7-2c-1.3-1.3-2-2.9-2-4.7v-16.7h6.7v16.7c0,0.9,0.3,1.7,1,2.3
			c0.7,0.7,1.4,1,2.4,1c0.9,0,1.7-0.3,2.4-1c0.7-0.7,1-1.4,1-2.3v-16.7h6.7v26.7c0,1.8-0.7,3.4-2,4.7c-1.3,1.3-2.9,2-4.7,2h-6.7
			c-3.9,0-6.1-2.2-6.7-6.7H826.2z"/>
		<path class="st0" d="M849.5,867.3h6.7v6.7c0,3.9-2.2,6.2-6.7,6.7v-3.3c2.1-0.1,3.3-1.2,3.3-3.3h-3.3V867.3z"/>
	</g>
	<g>
		<path class="st0" d="M201,914.9h6.7v6.7h3.3v3.3h-3.3v13.3c0,1.1,0.4,1.9,1.1,2.5c0.7,0.6,1.4,0.9,2,0.9h0.3v3.3h-3.3
			c-1.8,0-3.4-0.7-4.7-2c-1.3-1.3-2-2.9-2-4.7v-13.3h-3.3v-3.3h3.3V914.9z"/>
		<path class="st0" d="M217.6,944.9v-30h6.7v10c0.1-1.1,0.5-2,1-2.5c0.6-0.6,1.3-0.8,2.3-0.8h3.3c1.8,0,3.4,0.7,4.7,2
			c1.3,1.3,2,2.9,2,4.7v16.7H231v-16.7c0-0.9-0.3-1.7-1-2.4c-0.7-0.7-1.4-1-2.4-1c-0.9,0-1.7,0.3-2.4,1s-1,1.4-1,2.4v16.7H217.6z"/>
		<path class="st0" d="M264.3,934.9h-13.3v3.3c0,0.9,0.3,1.7,1,2.3c0.7,0.7,1.4,1,2.4,1h3.3c2.2,0,3.3-1.1,3.3-3.3h3.3
			c-0.5,4.4-2.7,6.7-6.7,6.7h-6.7c-1.8,0-3.4-0.7-4.7-2c-1.3-1.3-2-2.9-2-4.7v-10c0-1.8,0.7-3.4,2-4.7c1.3-1.3,2.9-2,4.7-2h6.7
			c1.8,0,3.4,0.7,4.7,2c1.3,1.3,2,2.9,2,4.7V934.9z M250.9,931.5h6.7v-3.3c0-0.9-0.3-1.7-1-2.4c-0.7-0.7-1.4-1-2.4-1
			c-0.9,0-1.7,0.3-2.4,1s-1,1.4-1,2.4V931.5z"/>
		<path class="st0" d="M277.6,944.9h-6.7v-23.3h6.7v6.7c0.3-2.2,0.9-3.9,2.1-5c1.1-1.1,2.7-1.7,4.6-1.7h3.3v6.7h-6.7
			c-0.9,0-1.7,0.3-2.4,1c-0.7,0.7-1,1.4-1,2.3V944.9z"/>
		<path class="st0" d="M310.9,934.9h-13.3v3.3c0,0.9,0.3,1.7,1,2.3c0.7,0.7,1.4,1,2.4,1h3.3c2.2,0,3.3-1.1,3.3-3.3h3.3
			c-0.5,4.4-2.7,6.7-6.7,6.7h-6.7c-1.8,0-3.4-0.7-4.7-2c-1.3-1.3-2-2.9-2-4.7v-10c0-1.8,0.7-3.4,2-4.7c1.3-1.3,2.9-2,4.7-2h6.7
			c1.8,0,3.4,0.7,4.7,2c1.3,1.3,2,2.9,2,4.7V934.9z M297.6,931.5h6.7v-3.3c0-0.9-0.3-1.7-1-2.4c-0.7-0.7-1.4-1-2.4-1
			c-0.9,0-1.7,0.3-2.4,1s-1,1.4-1,2.4V931.5z"/>
		<path class="st0" d="M327.3,921.5h6.7v20h3.3c0.9,0,1.7-0.3,2.4-1c0.7-0.7,1-1.4,1-2.3v-16.7h6.7v20h3.3c0.9,0,1.7-0.3,2.3-1
			c0.7-0.7,1-1.4,1-2.3v-16.7h6.7v12c0,3.1-1.1,5.8-3.4,8c-2.2,2.2-4.9,3.4-8,3.4h-8.6v-1.1c-1.3,0.7-2.9,1.1-4.7,1.1h-8.6V921.5z"
			/>
		<path class="st0" d="M380.7,931.5v-3.3c0-0.9-0.3-1.7-1-2.4c-0.7-0.7-1.4-1-2.4-1H374c-2,0-3.1,1.1-3.3,3.3h-3.3
			c0.5-4.5,2.7-6.7,6.7-6.7h6.7c1.8,0,3.4,0.7,4.7,2c1.3,1.3,2,2.9,2,4.7v16.7h-6.7v-3.3c-0.3,2.2-1.4,3.3-3.3,3.3H374
			c-1.8,0-3.4-0.7-4.7-2c-1.3-1.3-2-2.9-2-4.7v0c0-1.8,0.7-3.4,2-4.7c1.3-1.3,2.9-2,4.7-2H380.7z M380.7,934.9h-3.3
			c-0.9,0-1.7,0.3-2.4,1c-0.7,0.7-1,1.4-1,2.3v0c0,0.9,0.3,1.7,1,2.3c0.7,0.7,1.4,1,2.4,1c0.9,0,1.7-0.3,2.4-1c0.7-0.7,1-1.4,1-2.3
			V934.9z"/>
		<path class="st0" d="M410.7,928.2h-3.3c-0.3-2.2-1.3-3.3-3.2-3.3c-1.2,0-2.1,0.2-2.7,0.7c-0.6,0.5-0.9,1.2-0.9,2.1
			c0,1,1.6,2.3,4.9,4c2.6,1.4,4.2,2.6,4.6,3.5c0.4,0.9,0.6,1.9,0.6,3c0,1.9-0.7,3.4-2,4.7c-1.3,1.3-2.9,2-4.7,2h-3.3
			c-4.4,0-6.7-2.2-6.7-6.7h3.3c0.3,2.2,1.3,3.3,3.1,3.3c1.2,0,2.1-0.2,2.7-0.7s0.9-1.2,0.9-2.1c0-0.9-1.6-2.3-4.8-4
			c-2.6-1.4-4.2-2.6-4.6-3.5c-0.4-0.9-0.6-1.9-0.6-3c0-1.9,0.7-3.5,2-4.8c1.3-1.3,2.9-2,4.7-2h3.3
			C408.2,921.5,410.4,923.8,410.7,928.2z"/>
		<path class="st0" d="M440.5,931.5v-3.3c0-0.9-0.3-1.7-1-2.4c-0.7-0.7-1.4-1-2.4-1h-3.3c-2,0-3.1,1.1-3.3,3.3h-3.3
			c0.5-4.5,2.7-6.7,6.7-6.7h6.7c1.8,0,3.4,0.7,4.7,2c1.3,1.3,2,2.9,2,4.7v16.7h-6.7v-3.3c-0.3,2.2-1.4,3.3-3.3,3.3h-3.3
			c-1.8,0-3.4-0.7-4.7-2c-1.3-1.3-2-2.9-2-4.7v0c0-1.8,0.7-3.4,2-4.7c1.3-1.3,2.9-2,4.7-2H440.5z M440.5,934.9h-3.3
			c-0.9,0-1.7,0.3-2.4,1c-0.7,0.7-1,1.4-1,2.3v0c0,0.9,0.3,1.7,1,2.3c0.7,0.7,1.4,1,2.4,1c0.9,0,1.7-0.3,2.4-1c0.7-0.7,1-1.4,1-2.3
			V934.9z"/>
		<path class="st0" d="M480.2,928.2h-3.3c-0.3-2.2-1.4-3.3-3.3-3.3c-0.9,0-1.7,0.3-2.4,1s-1,1.4-1,2.4v10c0,0.9,0.3,1.7,1,2.3
			c0.7,0.7,1.4,1,2.4,1c2,0,3.1-1.1,3.3-3.3h3.3c-0.3,4.4-2.5,6.7-6.7,6.7h-3.3c-1.8,0-3.4-0.7-4.7-2c-1.3-1.3-2-2.9-2-4.7v-10
			c0-1.8,0.7-3.4,2-4.7c1.3-1.3,2.9-2,4.7-2h3.3C477.7,921.5,479.9,923.8,480.2,928.2z"/>
		<path class="st0" d="M493.5,944.9h-6.7v-23.3h6.7v6.7c0.3-2.2,0.9-3.9,2.1-5c1.1-1.1,2.7-1.7,4.6-1.7h3.3v6.7h-6.7
			c-0.9,0-1.7,0.3-2.4,1c-0.7,0.7-1,1.4-1,2.3V944.9z"/>
		<path class="st0" d="M526.9,934.9h-13.3v3.3c0,0.9,0.3,1.7,1,2.3c0.7,0.7,1.4,1,2.4,1h3.3c2.2,0,3.3-1.1,3.3-3.3h3.3
			c-0.5,4.4-2.7,6.7-6.7,6.7h-6.7c-1.8,0-3.4-0.7-4.7-2c-1.3-1.3-2-2.9-2-4.7v-10c0-1.8,0.7-3.4,2-4.7c1.3-1.3,2.9-2,4.7-2h6.7
			c1.8,0,3.4,0.7,4.7,2c1.3,1.3,2,2.9,2,4.7V934.9z M513.5,931.5h6.7v-3.3c0-0.9-0.3-1.7-1-2.4c-0.7-0.7-1.4-1-2.4-1
			c-0.9,0-1.7,0.3-2.4,1s-1,1.4-1,2.4V931.5z"/>
		<path class="st0" d="M546.9,931.5v-3.3c0-0.9-0.3-1.7-1-2.4c-0.7-0.7-1.4-1-2.4-1h-3.3c-2,0-3.1,1.1-3.3,3.3h-3.3
			c0.5-4.5,2.7-6.7,6.7-6.7h6.7c1.8,0,3.4,0.7,4.7,2c1.3,1.3,2,2.9,2,4.7v16.7h-6.7v-3.3c-0.3,2.2-1.4,3.3-3.3,3.3h-3.3
			c-1.8,0-3.4-0.7-4.7-2c-1.3-1.3-2-2.9-2-4.7v0c0-1.8,0.7-3.4,2-4.7c1.3-1.3,2.9-2,4.7-2H546.9z M546.9,934.9h-3.3
			c-0.9,0-1.7,0.3-2.4,1c-0.7,0.7-1,1.4-1,2.3v0c0,0.9,0.3,1.7,1,2.3c0.7,0.7,1.4,1,2.4,1c0.9,0,1.7-0.3,2.4-1c0.7-0.7,1-1.4,1-2.3
			V934.9z"/>
		<path class="st0" d="M563.5,914.9h6.7v6.7h3.3v3.3h-3.3v13.3c0,1.1,0.4,1.9,1.1,2.5c0.7,0.6,1.4,0.9,2,0.9h0.3v3.3h-3.3
			c-1.8,0-3.4-0.7-4.7-2c-1.3-1.3-2-2.9-2-4.7v-13.3h-3.3v-3.3h3.3V914.9z"/>
		<path class="st0" d="M600.2,921.5v23.3h-6.7v-3.3c-0.3,2.2-1.4,3.3-3.3,3.3h-3.3c-1.8,0-3.4-0.7-4.7-2c-1.3-1.3-2-2.9-2-4.7v-16.7
			h6.7v16.7c0,0.9,0.3,1.7,1,2.3c0.7,0.7,1.4,1,2.4,1c0.9,0,1.7-0.3,2.4-1c0.7-0.7,1-1.4,1-2.3v-16.7H600.2z"/>
		<path class="st0" d="M613.5,944.9h-6.7v-23.3h6.7v6.7c0.3-2.2,0.9-3.9,2.1-5c1.1-1.1,2.7-1.7,4.6-1.7h3.3v6.7h-6.7
			c-0.9,0-1.7,0.3-2.4,1c-0.7,0.7-1,1.4-1,2.3V944.9z"/>
		<path class="st0" d="M646.8,934.9h-13.3v3.3c0,0.9,0.3,1.7,1,2.3c0.7,0.7,1.4,1,2.4,1h3.3c2.2,0,3.3-1.1,3.3-3.3h3.3
			c-0.5,4.4-2.7,6.7-6.7,6.7h-6.7c-1.8,0-3.4-0.7-4.7-2c-1.3-1.3-2-2.9-2-4.7v-10c0-1.8,0.7-3.4,2-4.7c1.3-1.3,2.9-2,4.7-2h6.7
			c1.8,0,3.4,0.7,4.7,2c1.3,1.3,2,2.9,2,4.7V934.9z M633.5,931.5h6.7v-3.3c0-0.9-0.3-1.7-1-2.4c-0.7-0.7-1.4-1-2.4-1
			c-0.9,0-1.7,0.3-2.4,1s-1,1.4-1,2.4V931.5z"/>
		<path class="st0" d="M683.3,944.9h-6.7v-3.3c-0.3,2.2-1.4,3.3-3.3,3.3h-3.3c-1.8,0-3.4-0.7-4.7-2c-1.3-1.3-2-2.9-2-4.7v-10
			c0-1.8,0.7-3.4,2-4.7c1.3-1.3,2.9-2,4.7-2h6.7v-6.7h6.7V944.9z M676.6,924.9h-3.3c-0.9,0-1.7,0.3-2.4,1s-1,1.4-1,2.4v10
			c0,0.9,0.3,1.7,1,2.3c0.7,0.7,1.4,1,2.4,1c0.9,0,1.7-0.3,2.4-1c0.7-0.7,1-1.4,1-2.3V924.9z"/>
		<path class="st0" d="M689.9,921.5h6.7v20h3.3c0.9,0,1.7-0.3,2.4-1c0.7-0.7,1-1.4,1-2.3v-16.7h6.7v20h3.3c0.9,0,1.7-0.3,2.3-1
			c0.7-0.7,1-1.4,1-2.3v-16.7h6.7v12c0,3.1-1.1,5.8-3.4,8c-2.2,2.2-4.9,3.4-8,3.4h-8.6v-1.1c-1.3,0.7-2.9,1.1-4.7,1.1h-8.6V921.5z"
			/>
		<path class="st0" d="M749.9,934.9h-13.3v3.3c0,0.9,0.3,1.7,1,2.3c0.7,0.7,1.4,1,2.4,1h3.3c2.2,0,3.3-1.1,3.3-3.3h3.3
			c-0.5,4.4-2.7,6.7-6.7,6.7h-6.7c-1.8,0-3.4-0.7-4.7-2c-1.3-1.3-2-2.9-2-4.7v-10c0-1.8,0.7-3.4,2-4.7c1.3-1.3,2.9-2,4.7-2h6.7
			c1.8,0,3.4,0.7,4.7,2c1.3,1.3,2,2.9,2,4.7V934.9z M736.6,931.5h6.7v-3.3c0-0.9-0.3-1.7-1-2.4c-0.7-0.7-1.4-1-2.4-1
			c-0.9,0-1.7,0.3-2.4,1s-1,1.4-1,2.4V931.5z"/>
		<path class="st0" d="M756.6,944.9v-30h6.7v30H756.6z"/>
		<path class="st0" d="M773.3,914.9h6.7v6.7h3.3v3.3h-3.3v13.3c0,1.1,0.4,1.9,1.1,2.5c0.7,0.6,1.4,0.9,2,0.9h0.3v3.3h-3.3
			c-1.8,0-3.4-0.7-4.7-2c-1.3-1.3-2-2.9-2-4.7v-13.3h-3.3v-3.3h3.3V914.9z"/>
		<path class="st0" d="M799.7,918.2v-3.3h6.7v3.3H799.7z M799.7,944.9v-23.3h6.7v23.3H799.7z"/>
		<path class="st0" d="M813,944.9v-23.3h6.7v3.3c0.1-1.1,0.5-2,1-2.5c0.6-0.6,1.3-0.8,2.3-0.8h3.3c1.8,0,3.4,0.7,4.7,2
			c1.3,1.3,2,2.9,2,4.7v16.7h-6.7v-16.7c0-0.9-0.3-1.7-1-2.4c-0.7-0.7-1.4-1-2.4-1c-0.9,0-1.7,0.3-2.4,1s-1,1.4-1,2.4v16.7H813z"/>
		<path class="st0" d="M852.8,914.9h6.7v6.7h3.3v3.3h-3.3v13.3c0,1.1,0.4,1.9,1.1,2.5c0.7,0.6,1.4,0.9,2,0.9h0.3v3.3h-3.3
			c-1.8,0-3.4-0.7-4.7-2c-1.3-1.3-2-2.9-2-4.7v-13.3h-3.3v-3.3h3.3V914.9z"/>
		<path class="st0" d="M869.4,944.9v-30h6.7v10c0.1-1.1,0.5-2,1-2.5c0.6-0.6,1.3-0.8,2.3-0.8h3.3c1.8,0,3.4,0.7,4.7,2
			c1.3,1.3,2,2.9,2,4.7v16.7h-6.7v-16.7c0-0.9-0.3-1.7-1-2.4c-0.7-0.7-1.4-1-2.4-1c-0.9,0-1.7,0.3-2.4,1s-1,1.4-1,2.4v16.7H869.4z"
			/>
		<path class="st0" d="M916.1,934.9h-13.3v3.3c0,0.9,0.3,1.7,1,2.3c0.7,0.7,1.4,1,2.4,1h3.3c2.2,0,3.3-1.1,3.3-3.3h3.3
			c-0.5,4.4-2.7,6.7-6.7,6.7h-6.7c-1.8,0-3.4-0.7-4.7-2c-1.3-1.3-2-2.9-2-4.7v-10c0-1.8,0.7-3.4,2-4.7c1.3-1.3,2.9-2,4.7-2h6.7
			c1.8,0,3.4,0.7,4.7,2c1.3,1.3,2,2.9,2,4.7V934.9z M902.8,931.5h6.7v-3.3c0-0.9-0.3-1.7-1-2.4c-0.7-0.7-1.4-1-2.4-1
			c-0.9,0-1.7,0.3-2.4,1s-1,1.4-1,2.4V931.5z"/>
	</g>
	<g>
		<path class="st0" d="M297.2,1015.7v-30h6.7v26.7h10v3.3H297.2z"/>
		<path class="st0" d="M333.9,1002.4v-3.3c0-0.9-0.3-1.7-1-2.4c-0.7-0.7-1.4-1-2.4-1h-3.3c-2,0-3.1,1.1-3.3,3.3h-3.3
			c0.5-4.5,2.7-6.7,6.7-6.7h6.7c1.8,0,3.4,0.7,4.7,2c1.3,1.3,2,2.9,2,4.7v16.7h-6.7v-3.3c-0.3,2.2-1.4,3.3-3.3,3.3h-3.3
			c-1.8,0-3.4-0.7-4.7-2c-1.3-1.3-2-2.9-2-4.7v0c0-1.8,0.7-3.4,2-4.7c1.3-1.3,2.9-2,4.7-2H333.9z M333.9,1005.7h-3.3
			c-0.9,0-1.7,0.3-2.4,1c-0.7,0.7-1,1.4-1,2.3v0c0,0.9,0.3,1.7,1,2.3c0.7,0.7,1.4,1,2.4,1c0.9,0,1.7-0.3,2.4-1c0.7-0.7,1-1.4,1-2.3
			V1005.7z"/>
		<path class="st0" d="M347.2,1015.7v-30h6.7v10c0.1-1.1,0.5-2,1-2.5c0.6-0.6,1.3-0.8,2.3-0.8h3.3c1.8,0,3.4,0.7,4.7,2
			c1.3,1.3,2,2.9,2,4.7v10c0,1.8-0.7,3.4-2,4.7c-1.3,1.3-2.9,2-4.7,2H347.2z M353.9,1012.4h3.3c0.9,0,1.7-0.3,2.4-1
			c0.7-0.7,1-1.4,1-2.3v-10c0-0.9-0.3-1.7-1-2.4c-0.7-0.7-1.4-1-2.4-1c-0.9,0-1.7,0.3-2.4,1s-1,1.4-1,2.4V1012.4z"/>
		<path class="st0" d="M377.2,1019.1c0.2,2.2,1.3,3.3,3.3,3.3h3.3c0.9,0,1.7-0.3,2.4-1c0.7-0.7,1-1.4,1-2.3v-6.7
			c-0.3,2.2-1.4,3.3-3.3,3.3h-3.3c-1.8,0-3.4-0.7-4.7-2c-1.3-1.3-2-2.9-2-4.7v-16.7h6.7v16.7c0,0.9,0.3,1.7,1,2.3
			c0.7,0.7,1.4,1,2.4,1c0.9,0,1.7-0.3,2.4-1c0.7-0.7,1-1.4,1-2.3v-16.7h6.7v26.7c0,1.8-0.7,3.4-2,4.7c-1.3,1.3-2.9,2-4.7,2h-6.7
			c-3.9,0-6.1-2.2-6.7-6.7H377.2z"/>
		<path class="st0" d="M407.2,1015.7h-6.7v-23.3h6.7v6.7c0.3-2.2,0.9-3.9,2.1-5c1.1-1.1,2.7-1.7,4.6-1.7h3.3v6.7h-6.7
			c-0.9,0-1.7,0.3-2.4,1c-0.7,0.7-1,1.4-1,2.3V1015.7z"/>
		<path class="st0" d="M420.5,989.1v-3.3h6.7v3.3H420.5z M420.5,1015.7v-23.3h6.7v23.3H420.5z"/>
		<path class="st0" d="M433.9,1015.7v-23.3h6.7v3.3c0.1-1.1,0.5-2,1-2.5c0.6-0.6,1.3-0.8,2.3-0.8h3.3c1.8,0,3.4,0.7,4.7,2
			c1.3,1.3,2,2.9,2,4.7v16.7h-6.7v-16.7c0-0.9-0.3-1.7-1-2.4c-0.7-0.7-1.4-1-2.4-1c-0.9,0-1.7,0.3-2.4,1s-1,1.4-1,2.4v16.7H433.9z"
			/>
		<path class="st0" d="M463.9,985.7h6.7v6.7h3.3v3.3h-3.3v13.3c0,1.1,0.4,1.9,1.1,2.5c0.7,0.6,1.4,0.9,2,0.9h0.3v3.3h-3.3
			c-1.8,0-3.4-0.7-4.7-2c-1.3-1.3-2-2.9-2-4.7v-13.3h-3.3v-3.3h3.3V985.7z"/>
		<path class="st0" d="M480.5,1015.7v-30h6.7v10c0.1-1.1,0.5-2,1-2.5c0.6-0.6,1.3-0.8,2.3-0.8h3.3c1.8,0,3.4,0.7,4.7,2
			c1.3,1.3,2,2.9,2,4.7v16.7h-6.7v-16.7c0-0.9-0.3-1.7-1-2.4c-0.7-0.7-1.4-1-2.4-1c-0.9,0-1.7,0.3-2.4,1s-1,1.4-1,2.4v16.7H480.5z"
			/>
		<path class="st0" d="M523.6,992.4h6.7c1.8,0,3.4,0.7,4.7,2c1.3,1.3,2,2.9,2,4.7v10c0,1.8-0.7,3.4-2,4.7c-1.3,1.3-2.9,2-4.7,2h-6.7
			c-1.8,0-3.4-0.7-4.7-2c-1.3-1.3-2-2.9-2-4.7v-10c0-1.8,0.7-3.4,2-4.7C520.2,993.1,521.8,992.4,523.6,992.4z M523.6,999.1v10
			c0,0.9,0.3,1.7,1,2.3c0.7,0.7,1.4,1,2.4,1c0.9,0,1.7-0.3,2.4-1c0.7-0.7,1-1.4,1-2.3v-10c0-0.9-0.3-1.7-1-2.4c-0.7-0.7-1.4-1-2.4-1
			c-0.9,0-1.7,0.3-2.4,1S523.6,998.2,523.6,999.1z"/>
		<path class="st0" d="M547,1015.7v-20h-3.3v-3.3h3.3v-0.3c0-1.7,0.6-3.2,1.9-4.5s2.7-1.9,4.5-1.9h7v3.3h-3.6
			c-0.8,0-1.5,0.3-2.1,0.9c-0.6,0.6-0.9,1.3-0.9,2.1v0.3h3.3v3.3h-3.3v20H547z"/>
		<path class="st0" d="M573.4,1015.7v-30h6.7V998l10.8-12.2h5.9l-13.3,15l13.3,15H590l-10-11.7v11.7H573.4z"/>
		<path class="st0" d="M603.4,989.1v-3.3h6.7v3.3H603.4z M603.4,1015.7v-23.3h6.7v23.3H603.4z"/>
		<path class="st0" d="M616.7,1015.7v-23.3h6.7v3.3c0.1-1.1,0.5-2,1-2.5c0.6-0.6,1.3-0.8,2.3-0.8h3.3c1.8,0,3.4,0.7,4.7,2
			c1.3,1.3,2,2.9,2,4.7v16.7h-6.7v-16.7c0-0.9-0.3-1.7-1-2.4c-0.7-0.7-1.4-1-2.4-1c-0.9,0-1.7,0.3-2.4,1s-1,1.4-1,2.4v16.7H616.7z"
			/>
		<path class="st0" d="M663.4,992.4v26.7c0,1.8-0.7,3.4-2,4.7c-1.3,1.3-2.9,2-4.7,2H650c-3.9,0-6.1-2.2-6.7-6.7h3.3
			c0.2,2.2,1.3,3.3,3.3,3.3h3.3c0.9,0,1.7-0.3,2.4-1c0.7-0.7,1-1.4,1-2.3v-6.7c-0.3,2.2-1.4,3.3-3.3,3.3H650c-1.8,0-3.4-0.7-4.7-2
			c-1.3-1.3-2-2.9-2-4.7v-10c0-1.8,0.7-3.4,2-4.7c1.3-1.3,2.9-2,4.7-2H663.4z M656.7,995.7h-3.3c-0.9,0-1.7,0.3-2.4,1s-1,1.4-1,2.4
			v10c0,0.9,0.3,1.7,1,2.3c0.7,0.7,1.4,1,2.4,1c0.9,0,1.7-0.3,2.4-1c0.7-0.7,1-1.4,1-2.3V995.7z"/>
		<path class="st0" d="M679.8,1015.7v-30h1.5l14.2,14.2l14.2-14.2h3.3v30h-6.7v-18.3l-11.7,11.7l-11.6-11.7v18.3H679.8z"/>
		<path class="st0" d="M719.8,989.1v-3.3h6.7v3.3H719.8z M719.8,1015.7v-23.3h6.7v23.3H719.8z"/>
		<path class="st0" d="M733.1,1015.7v-23.3h6.7v3.3c0.1-1.1,0.5-2,1-2.5c0.6-0.6,1.3-0.8,2.3-0.8h3.3c1.8,0,3.4,0.7,4.7,2
			c1.3,1.3,2,2.9,2,4.7v16.7h-6.7v-16.7c0-0.9-0.3-1.7-1-2.4c-0.7-0.7-1.4-1-2.4-1c-0.9,0-1.7,0.3-2.4,1s-1,1.4-1,2.4v16.7H733.1z"
			/>
		<path class="st0" d="M766.4,992.4h6.7c1.8,0,3.4,0.7,4.7,2c1.3,1.3,2,2.9,2,4.7v10c0,1.8-0.7,3.4-2,4.7c-1.3,1.3-2.9,2-4.7,2h-6.7
			c-1.8,0-3.4-0.7-4.7-2c-1.3-1.3-2-2.9-2-4.7v-10c0-1.8,0.7-3.4,2-4.7C763.1,993.1,764.6,992.4,766.4,992.4z M766.4,999.1v10
			c0,0.9,0.3,1.7,1,2.3c0.7,0.7,1.4,1,2.4,1c0.9,0,1.7-0.3,2.4-1c0.7-0.7,1-1.4,1-2.3v-10c0-0.9-0.3-1.7-1-2.4c-0.7-0.7-1.4-1-2.4-1
			c-0.9,0-1.7,0.3-2.4,1S766.4,998.2,766.4,999.1z"/>
		<path class="st0" d="M803.1,999.1h-3.3c-0.3-2.2-1.3-3.3-3.2-3.3c-1.2,0-2.1,0.2-2.7,0.7c-0.6,0.5-0.9,1.2-0.9,2.1
			c0,1,1.6,2.3,4.9,4c2.6,1.4,4.2,2.6,4.6,3.5c0.4,0.9,0.6,1.9,0.6,3c0,1.9-0.7,3.4-2,4.7c-1.3,1.3-2.9,2-4.7,2h-3.3
			c-4.4,0-6.7-2.2-6.7-6.7h3.3c0.3,2.2,1.3,3.3,3.1,3.3c1.2,0,2.1-0.2,2.7-0.7s0.9-1.2,0.9-2.1c0-0.9-1.6-2.3-4.8-4
			c-2.6-1.4-4.2-2.6-4.6-3.5c-0.4-0.9-0.6-1.9-0.6-3c0-1.9,0.7-3.5,2-4.8c1.3-1.3,2.9-2,4.7-2h3.3
			C800.6,992.4,802.8,994.6,803.1,999.1z"/>
		<path class="st0" d="M809.8,1015.7v-6.7h6.7v6.7H809.8z"/>
	</g>
	<g>
		<path class="st0" d="M214.1,1086.6v-26.7h-6.7v-3.3h20v3.3h-6.7v26.7H214.1z"/>
		<path class="st0" d="M230.8,1086.6v-30h6.7v10c0.1-1.1,0.5-2,1-2.5c0.6-0.6,1.3-0.8,2.3-0.8h3.3c1.8,0,3.4,0.7,4.7,2
			c1.3,1.3,2,2.9,2,4.7v16.7h-6.7v-16.7c0-0.9-0.3-1.7-1-2.4c-0.7-0.7-1.4-1-2.4-1c-0.9,0-1.7,0.3-2.4,1s-1,1.4-1,2.4v16.7H230.8z"
			/>
		<path class="st0" d="M277.5,1076.6h-13.3v3.3c0,0.9,0.3,1.7,1,2.3c0.7,0.7,1.4,1,2.4,1h3.3c2.2,0,3.3-1.1,3.3-3.3h3.3
			c-0.5,4.4-2.7,6.7-6.7,6.7h-6.7c-1.8,0-3.4-0.7-4.7-2c-1.3-1.3-2-2.9-2-4.7v-10c0-1.8,0.7-3.4,2-4.7c1.3-1.3,2.9-2,4.7-2h6.7
			c1.8,0,3.4,0.7,4.7,2c1.3,1.3,2,2.9,2,4.7V1076.6z M264.1,1073.3h6.7v-3.3c0-0.9-0.3-1.7-1-2.4c-0.7-0.7-1.4-1-2.4-1
			c-0.9,0-1.7,0.3-2.4,1s-1,1.4-1,2.4V1073.3z"/>
		<path class="st0" d="M300.8,1069.9h-3.3c-0.3-2.2-1.3-3.3-3.2-3.3c-1.2,0-2.1,0.2-2.7,0.7c-0.6,0.5-0.9,1.2-0.9,2.1
			c0,1,1.6,2.3,4.9,4c2.6,1.4,4.2,2.6,4.6,3.5c0.4,0.9,0.6,1.9,0.6,3c0,1.9-0.7,3.4-2,4.7c-1.3,1.3-2.9,2-4.7,2h-3.3
			c-4.4,0-6.7-2.2-6.7-6.7h3.3c0.3,2.2,1.3,3.3,3.1,3.3c1.2,0,2.1-0.2,2.7-0.7s0.9-1.2,0.9-2.1c0-0.9-1.6-2.3-4.8-4
			c-2.6-1.4-4.2-2.6-4.6-3.5c-0.4-0.9-0.6-1.9-0.6-3c0-1.9,0.7-3.5,2-4.8c1.3-1.3,2.9-2,4.7-2h3.3
			C298.3,1063.3,300.5,1065.5,300.8,1069.9z"/>
		<path class="st0" d="M327.5,1076.6h-13.3v3.3c0,0.9,0.3,1.7,1,2.3c0.7,0.7,1.4,1,2.4,1h3.3c2.2,0,3.3-1.1,3.3-3.3h3.3
			c-0.5,4.4-2.7,6.7-6.7,6.7h-6.7c-1.8,0-3.4-0.7-4.7-2c-1.3-1.3-2-2.9-2-4.7v-10c0-1.8,0.7-3.4,2-4.7c1.3-1.3,2.9-2,4.7-2h6.7
			c1.8,0,3.4,0.7,4.7,2c1.3,1.3,2,2.9,2,4.7V1076.6z M314.1,1073.3h6.7v-3.3c0-0.9-0.3-1.7-1-2.4c-0.7-0.7-1.4-1-2.4-1
			c-0.9,0-1.7,0.3-2.4,1s-1,1.4-1,2.4V1073.3z"/>
		<path class="st0" d="M354.1,1063.3v23.3h-6.7v-3.3c-0.3,2.2-1.4,3.3-3.3,3.3h-3.3c-1.8,0-3.4-0.7-4.7-2c-1.3-1.3-2-2.9-2-4.7
			v-16.7h6.7v16.7c0,0.9,0.3,1.7,1,2.3c0.7,0.7,1.4,1,2.4,1c0.9,0,1.7-0.3,2.4-1c0.7-0.7,1-1.4,1-2.3v-16.7H354.1z"/>
		<path class="st0" d="M377.4,1069.9h-3.3c-0.3-2.2-1.3-3.3-3.2-3.3c-1.2,0-2.1,0.2-2.7,0.7c-0.6,0.5-0.9,1.2-0.9,2.1
			c0,1,1.6,2.3,4.9,4c2.6,1.4,4.2,2.6,4.6,3.5c0.4,0.9,0.6,1.9,0.6,3c0,1.9-0.7,3.4-2,4.7c-1.3,1.3-2.9,2-4.7,2h-3.3
			c-4.4,0-6.7-2.2-6.7-6.7h3.3c0.3,2.2,1.3,3.3,3.1,3.3c1.2,0,2.1-0.2,2.7-0.7s0.9-1.2,0.9-2.1c0-0.9-1.6-2.3-4.8-4
			c-2.6-1.4-4.2-2.6-4.6-3.5c-0.4-0.9-0.6-1.9-0.6-3c0-1.9,0.7-3.5,2-4.8c1.3-1.3,2.9-2,4.7-2h3.3
			C374.9,1063.3,377.2,1065.5,377.4,1069.9z"/>
		<path class="st0" d="M384.1,1079.9h6.7v6.7c0,3.9-2.2,6.2-6.7,6.7v-3.3c2.1-0.1,3.3-1.2,3.3-3.3h-3.3V1079.9z"/>
		<path class="st0" d="M410.6,1056.6h6.7v6.7h3.3v3.3h-3.3v13.3c0,1.1,0.4,1.9,1.1,2.5c0.7,0.6,1.4,0.9,2,0.9h0.3v3.3h-3.3
			c-1.8,0-3.4-0.7-4.7-2c-1.3-1.3-2-2.9-2-4.7v-13.3h-3.3v-3.3h3.3V1056.6z"/>
		<path class="st0" d="M427.2,1086.6v-30h6.7v10c0.1-1.1,0.5-2,1-2.5c0.6-0.6,1.3-0.8,2.3-0.8h3.3c1.8,0,3.4,0.7,4.7,2
			c1.3,1.3,2,2.9,2,4.7v16.7h-6.7v-16.7c0-0.9-0.3-1.7-1-2.4c-0.7-0.7-1.4-1-2.4-1c-0.9,0-1.7,0.3-2.4,1s-1,1.4-1,2.4v16.7H427.2z"
			/>
		<path class="st0" d="M473.9,1076.6h-13.3v3.3c0,0.9,0.3,1.7,1,2.3c0.7,0.7,1.4,1,2.4,1h3.3c2.2,0,3.3-1.1,3.3-3.3h3.3
			c-0.5,4.4-2.7,6.7-6.7,6.7h-6.7c-1.8,0-3.4-0.7-4.7-2c-1.3-1.3-2-2.9-2-4.7v-10c0-1.8,0.7-3.4,2-4.7c1.3-1.3,2.9-2,4.7-2h6.7
			c1.8,0,3.4,0.7,4.7,2c1.3,1.3,2,2.9,2,4.7V1076.6z M460.5,1073.3h6.7v-3.3c0-0.9-0.3-1.7-1-2.4c-0.7-0.7-1.4-1-2.4-1
			c-0.9,0-1.7,0.3-2.4,1s-1,1.4-1,2.4V1073.3z"/>
		<path class="st0" d="M507,1069.9h-3.3c-0.3-2.2-1.3-3.3-3.2-3.3c-1.2,0-2.1,0.2-2.7,0.7c-0.6,0.5-0.9,1.2-0.9,2.1
			c0,1,1.6,2.3,4.9,4c2.6,1.4,4.2,2.6,4.6,3.5c0.4,0.9,0.6,1.9,0.6,3c0,1.9-0.7,3.4-2,4.7c-1.3,1.3-2.9,2-4.7,2H497
			c-4.4,0-6.7-2.2-6.7-6.7h3.3c0.3,2.2,1.3,3.3,3.1,3.3c1.2,0,2.1-0.2,2.7-0.7s0.9-1.2,0.9-2.1c0-0.9-1.6-2.3-4.8-4
			c-2.6-1.4-4.2-2.6-4.6-3.5c-0.4-0.9-0.6-1.9-0.6-3c0-1.9,0.7-3.5,2-4.8c1.3-1.3,2.9-2,4.7-2h3.3
			C504.5,1063.3,506.7,1065.5,507,1069.9z"/>
		<path class="st0" d="M520.3,1063.3h6.7c1.8,0,3.4,0.7,4.7,2c1.3,1.3,2,2.9,2,4.7v10c0,1.8-0.7,3.4-2,4.7c-1.3,1.3-2.9,2-4.7,2
			h-6.7c-1.8,0-3.4-0.7-4.7-2c-1.3-1.3-2-2.9-2-4.7v-10c0-1.8,0.7-3.4,2-4.7C516.9,1063.9,518.5,1063.3,520.3,1063.3z M520.3,1069.9
			v10c0,0.9,0.3,1.7,1,2.3c0.7,0.7,1.4,1,2.4,1c0.9,0,1.7-0.3,2.4-1c0.7-0.7,1-1.4,1-2.3v-10c0-0.9-0.3-1.7-1-2.4
			c-0.7-0.7-1.4-1-2.4-1c-0.9,0-1.7,0.3-2.4,1S520.3,1069,520.3,1069.9z"/>
		<path class="st0" d="M540.3,1086.6v-23.3h6.7v3.3c0.1-1.1,0.5-2,1-2.5c0.6-0.6,1.3-0.8,2.3-0.8h3.3c1.8,0,3.4,0.7,4.7,2
			c1.3,1.3,2,2.9,2,4.7v16.7h-6.7v-16.7c0-0.9-0.3-1.7-1-2.4c-0.7-0.7-1.4-1-2.4-1c-0.9,0-1.7,0.3-2.4,1s-1,1.4-1,2.4v16.7H540.3z"
			/>
		<path class="st0" d="M583.4,1063.3h6.7c1.8,0,3.4,0.7,4.7,2c1.3,1.3,2,2.9,2,4.7v10c0,1.8-0.7,3.4-2,4.7c-1.3,1.3-2.9,2-4.7,2
			h-6.7c-1.8,0-3.4-0.7-4.7-2c-1.3-1.3-2-2.9-2-4.7v-10c0-1.8,0.7-3.4,2-4.7C580,1063.9,581.6,1063.3,583.4,1063.3z M583.4,1069.9
			v10c0,0.9,0.3,1.7,1,2.3c0.7,0.7,1.4,1,2.4,1c0.9,0,1.7-0.3,2.4-1c0.7-0.7,1-1.4,1-2.3v-10c0-0.9-0.3-1.7-1-2.4
			c-0.7-0.7-1.4-1-2.4-1c-0.9,0-1.7,0.3-2.4,1S583.4,1069,583.4,1069.9z"/>
		<path class="st0" d="M606.7,1086.6v-20h-3.3v-3.3h3.3v-0.3c0-1.7,0.6-3.2,1.9-4.5s2.7-1.9,4.5-1.9h7v3.3h-3.6
			c-0.8,0-1.5,0.3-2.1,0.9c-0.6,0.6-0.9,1.3-0.9,2.1v0.3h3.3v3.3h-3.3v20H606.7z"/>
		<path class="st0" d="M633.2,1086.6v-30h6.7v12.2l10.8-12.2h5.9l-13.3,15l13.3,15h-6.7l-10-11.7v11.7H633.2z"/>
		<path class="st0" d="M663.2,1059.9v-3.3h6.7v3.3H663.2z M663.2,1086.6v-23.3h6.7v23.3H663.2z"/>
		<path class="st0" d="M676.5,1086.6v-23.3h6.7v3.3c0.1-1.1,0.5-2,1-2.5c0.6-0.6,1.3-0.8,2.3-0.8h3.3c1.8,0,3.4,0.7,4.7,2
			c1.3,1.3,2,2.9,2,4.7v16.7h-6.7v-16.7c0-0.9-0.3-1.7-1-2.4c-0.7-0.7-1.4-1-2.4-1c-0.9,0-1.7,0.3-2.4,1s-1,1.4-1,2.4v16.7H676.5z"
			/>
		<path class="st0" d="M723.2,1063.3v26.7c0,1.8-0.7,3.4-2,4.7c-1.3,1.3-2.9,2-4.7,2h-6.7c-3.9,0-6.1-2.2-6.7-6.7h3.3
			c0.2,2.2,1.3,3.3,3.3,3.3h3.3c0.9,0,1.7-0.3,2.4-1c0.7-0.7,1-1.4,1-2.3v-6.7c-0.3,2.2-1.4,3.3-3.3,3.3h-3.3c-1.8,0-3.4-0.7-4.7-2
			c-1.3-1.3-2-2.9-2-4.7v-10c0-1.8,0.7-3.4,2-4.7c1.3-1.3,2.9-2,4.7-2H723.2z M716.5,1066.6h-3.3c-0.9,0-1.7,0.3-2.4,1s-1,1.4-1,2.4
			v10c0,0.9,0.3,1.7,1,2.3c0.7,0.7,1.4,1,2.4,1c0.9,0,1.7-0.3,2.4-1c0.7-0.7,1-1.4,1-2.3V1066.6z"/>
		<path class="st0" d="M739.6,1086.6v-23.3c0-1.8,0.7-3.4,2-4.7c1.3-1.3,2.9-2,4.7-2h6.7c1.8,0,3.4,0.7,4.7,2c1.3,1.3,2,2.9,2,4.7
			v23.3h-6.7v-13.3h-6.7v13.3H739.6z M746.2,1069.9h6.7v-6.7c0-0.9-0.3-1.7-1-2.3c-0.7-0.7-1.4-1-2.4-1c-0.9,0-1.7,0.3-2.4,1
			c-0.7,0.7-1,1.4-1,2.3V1069.9z"/>
		<path class="st0" d="M786.2,1076.6h-13.3v3.3c0,0.9,0.3,1.7,1,2.3c0.7,0.7,1.4,1,2.4,1h3.3c2.2,0,3.3-1.1,3.3-3.3h3.3
			c-0.5,4.4-2.7,6.7-6.7,6.7h-6.7c-1.8,0-3.4-0.7-4.7-2c-1.3-1.3-2-2.9-2-4.7v-10c0-1.8,0.7-3.4,2-4.7c1.3-1.3,2.9-2,4.7-2h6.7
			c1.8,0,3.4,0.7,4.7,2c1.3,1.3,2,2.9,2,4.7V1076.6z M772.9,1073.3h6.7v-3.3c0-0.9-0.3-1.7-1-2.4c-0.7-0.7-1.4-1-2.4-1
			c-0.9,0-1.7,0.3-2.4,1s-1,1.4-1,2.4V1073.3z"/>
		<path class="st0" d="M812.9,1063.3v26.7c0,1.8-0.7,3.4-2,4.7c-1.3,1.3-2.9,2-4.7,2h-6.7c-3.9,0-6.1-2.2-6.7-6.7h3.3
			c0.2,2.2,1.3,3.3,3.3,3.3h3.3c0.9,0,1.7-0.3,2.4-1c0.7-0.7,1-1.4,1-2.3v-6.7c-0.3,2.2-1.4,3.3-3.3,3.3h-3.3c-1.8,0-3.4-0.7-4.7-2
			c-1.3-1.3-2-2.9-2-4.7v-10c0-1.8,0.7-3.4,2-4.7c1.3-1.3,2.9-2,4.7-2H812.9z M806.2,1066.6h-3.3c-0.9,0-1.7,0.3-2.4,1s-1,1.4-1,2.4
			v10c0,0.9,0.3,1.7,1,2.3c0.7,0.7,1.4,1,2.4,1c0.9,0,1.7-0.3,2.4-1c0.7-0.7,1-1.4,1-2.3V1066.6z"/>
		<path class="st0" d="M839.5,1076.6h-13.3v3.3c0,0.9,0.3,1.7,1,2.3c0.7,0.7,1.4,1,2.4,1h3.3c2.2,0,3.3-1.1,3.3-3.3h3.3
			c-0.5,4.4-2.7,6.7-6.7,6.7h-6.7c-1.8,0-3.4-0.7-4.7-2c-1.3-1.3-2-2.9-2-4.7v-10c0-1.8,0.7-3.4,2-4.7c1.3-1.3,2.9-2,4.7-2h6.7
			c1.8,0,3.4,0.7,4.7,2c1.3,1.3,2,2.9,2,4.7V1076.6z M826.2,1073.3h6.7v-3.3c0-0.9-0.3-1.7-1-2.4c-0.7-0.7-1.4-1-2.4-1
			c-0.9,0-1.7,0.3-2.4,1s-1,1.4-1,2.4V1073.3z"/>
		<path class="st0" d="M866.2,1063.3v23.3h-6.7v-3.3c-0.3,2.2-1.4,3.3-3.3,3.3h-3.3c-1.8,0-3.4-0.7-4.7-2c-1.3-1.3-2-2.9-2-4.7
			v-16.7h6.7v16.7c0,0.9,0.3,1.7,1,2.3c0.7,0.7,1.4,1,2.4,1c0.9,0,1.7-0.3,2.4-1c0.7-0.7,1-1.4,1-2.3v-16.7H866.2z"/>
		<path class="st0" d="M889.5,1069.9h-3.3c-0.3-2.2-1.3-3.3-3.2-3.3c-1.2,0-2.1,0.2-2.7,0.7c-0.6,0.5-0.9,1.2-0.9,2.1
			c0,1,1.6,2.3,4.9,4c2.6,1.4,4.2,2.6,4.6,3.5c0.4,0.9,0.6,1.9,0.6,3c0,1.9-0.7,3.4-2,4.7c-1.3,1.3-2.9,2-4.7,2h-3.3
			c-4.4,0-6.7-2.2-6.7-6.7h3.3c0.3,2.2,1.3,3.3,3.1,3.3c1.2,0,2.1-0.2,2.7-0.7s0.9-1.2,0.9-2.1c0-0.9-1.6-2.3-4.8-4
			c-2.6-1.4-4.2-2.6-4.6-3.5c-0.4-0.9-0.6-1.9-0.6-3c0-1.9,0.7-3.5,2-4.8c1.3-1.3,2.9-2,4.7-2h3.3
			C887,1063.3,889.2,1065.5,889.5,1069.9z"/>
		<path class="st0" d="M896.2,1079.9h6.7v6.7c0,3.9-2.2,6.2-6.7,6.7v-3.3c2.1-0.1,3.3-1.2,3.3-3.3h-3.3V1079.9z"/>
	</g>
	<g>
		<path class="st0" d="M215.8,1134.1h6.7v12c0,3.1-1.1,5.8-3.4,8c-2.2,2.2-4.9,3.4-8,3.4h-8.6v-23.3h6.7v20h3.3c0.9,0,1.7-0.3,2.4-1
			c0.7-0.7,1-1.4,1-2.3V1134.1z"/>
		<path class="st0" d="M235.8,1134.1h6.7c1.8,0,3.4,0.7,4.7,2c1.3,1.3,2,2.9,2,4.7v10c0,1.8-0.7,3.4-2,4.7c-1.3,1.3-2.9,2-4.7,2
			h-6.7c-1.8,0-3.4-0.7-4.7-2c-1.3-1.3-2-2.9-2-4.7v-10c0-1.8,0.7-3.4,2-4.7C232.4,1134.8,234,1134.1,235.8,1134.1z M235.8,1140.8
			v10c0,0.9,0.3,1.7,1,2.3c0.7,0.7,1.4,1,2.4,1c0.9,0,1.7-0.3,2.4-1c0.7-0.7,1-1.4,1-2.3v-10c0-0.9-0.3-1.7-1-2.4
			c-0.7-0.7-1.4-1-2.4-1c-0.9,0-1.7,0.3-2.4,1S235.8,1139.9,235.8,1140.8z"/>
		<path class="st0" d="M255.8,1157.5v-30h6.7v30H255.8z"/>
		<path class="st0" d="M289.1,1134.1v23.3h-6.7v-3.3c-0.3,2.2-1.4,3.3-3.3,3.3h-3.3c-1.8,0-3.4-0.7-4.7-2c-1.3-1.3-2-2.9-2-4.7
			v-16.7h6.7v16.7c0,0.9,0.3,1.7,1,2.3c0.7,0.7,1.4,1,2.4,1c0.9,0,1.7-0.3,2.4-1c0.7-0.7,1-1.4,1-2.3v-16.7H289.1z"/>
		<path class="st0" d="M295.8,1157.5v-23.3h6.7v3.3c0.1-1.1,0.5-2,1-2.5c0.6-0.6,1.3-0.8,2.3-0.8h3.3c1.8,0,3.4,0.7,4.7,2
			c1.3,1.3,2,2.9,2,4.7v16.7h-6.7v-16.7c0-0.9-0.3-1.7-1-2.4c-0.7-0.7-1.4-1-2.4-1c-0.9,0-1.7,0.3-2.4,1s-1,1.4-1,2.4v16.7H295.8z"
			/>
		<path class="st0" d="M325.8,1127.5h6.7v6.7h3.3v3.3h-3.3v13.3c0,1.1,0.4,1.9,1.1,2.5c0.7,0.6,1.4,0.9,2,0.9h0.3v3.3h-3.3
			c-1.8,0-3.4-0.7-4.7-2c-1.3-1.3-2-2.9-2-4.7v-13.3h-3.3v-3.3h3.3V1127.5z"/>
		<path class="st0" d="M362.5,1147.5h-13.3v3.3c0,0.9,0.3,1.7,1,2.3c0.7,0.7,1.4,1,2.4,1h3.3c2.2,0,3.3-1.1,3.3-3.3h3.3
			c-0.5,4.4-2.7,6.7-6.7,6.7h-6.7c-1.8,0-3.4-0.7-4.7-2c-1.3-1.3-2-2.9-2-4.7v-10c0-1.8,0.7-3.4,2-4.7c1.3-1.3,2.9-2,4.7-2h6.7
			c1.8,0,3.4,0.7,4.7,2c1.3,1.3,2,2.9,2,4.7V1147.5z M349.1,1144.1h6.7v-3.3c0-0.9-0.3-1.7-1-2.4c-0.7-0.7-1.4-1-2.4-1
			c-0.9,0-1.7,0.3-2.4,1s-1,1.4-1,2.4V1144.1z"/>
		<path class="st0" d="M389.1,1147.5h-13.3v3.3c0,0.9,0.3,1.7,1,2.3c0.7,0.7,1.4,1,2.4,1h3.3c2.2,0,3.3-1.1,3.3-3.3h3.3
			c-0.5,4.4-2.7,6.7-6.7,6.7h-6.7c-1.8,0-3.4-0.7-4.7-2c-1.3-1.3-2-2.9-2-4.7v-10c0-1.8,0.7-3.4,2-4.7c1.3-1.3,2.9-2,4.7-2h6.7
			c1.8,0,3.4,0.7,4.7,2c1.3,1.3,2,2.9,2,4.7V1147.5z M375.8,1144.1h6.7v-3.3c0-0.9-0.3-1.7-1-2.4c-0.7-0.7-1.4-1-2.4-1
			c-0.9,0-1.7,0.3-2.4,1s-1,1.4-1,2.4V1144.1z"/>
		<path class="st0" d="M402.4,1157.5h-6.7v-23.3h6.7v6.7c0.3-2.2,0.9-3.9,2.1-5c1.1-1.1,2.7-1.7,4.6-1.7h3.3v6.7h-6.7
			c-0.9,0-1.7,0.3-2.4,1c-0.7,0.7-1,1.4-1,2.3V1157.5z"/>
		<path class="st0" d="M435.8,1147.5h-13.3v3.3c0,0.9,0.3,1.7,1,2.3c0.7,0.7,1.4,1,2.4,1h3.3c2.2,0,3.3-1.1,3.3-3.3h3.3
			c-0.5,4.4-2.7,6.7-6.7,6.7h-6.7c-1.8,0-3.4-0.7-4.7-2c-1.3-1.3-2-2.9-2-4.7v-10c0-1.8,0.7-3.4,2-4.7c1.3-1.3,2.9-2,4.7-2h6.7
			c1.8,0,3.4,0.7,4.7,2c1.3,1.3,2,2.9,2,4.7V1147.5z M422.4,1144.1h6.7v-3.3c0-0.9-0.3-1.7-1-2.4c-0.7-0.7-1.4-1-2.4-1
			c-0.9,0-1.7,0.3-2.4,1s-1,1.4-1,2.4V1144.1z"/>
		<path class="st0" d="M462.4,1157.5h-6.7v-3.3c-0.3,2.2-1.4,3.3-3.3,3.3h-3.3c-1.8,0-3.4-0.7-4.7-2c-1.3-1.3-2-2.9-2-4.7v-10
			c0-1.8,0.7-3.4,2-4.7c1.3-1.3,2.9-2,4.7-2h6.7v-6.7h6.7V1157.5z M455.8,1137.5h-3.3c-0.9,0-1.7,0.3-2.4,1s-1,1.4-1,2.4v10
			c0,0.9,0.3,1.7,1,2.3c0.7,0.7,1.4,1,2.4,1c0.9,0,1.7-0.3,2.4-1c0.7-0.7,1-1.4,1-2.3V1137.5z"/>
		<path class="st0" d="M482.2,1127.5h6.7v6.7h3.3v3.3h-3.3v13.3c0,1.1,0.4,1.9,1.1,2.5c0.7,0.6,1.4,0.9,2,0.9h0.3v3.3h-3.3
			c-1.8,0-3.4-0.7-4.7-2c-1.3-1.3-2-2.9-2-4.7v-13.3h-3.3v-3.3h3.3V1127.5z"/>
		<path class="st0" d="M505.5,1134.1h6.7c1.8,0,3.4,0.7,4.7,2c1.3,1.3,2,2.9,2,4.7v10c0,1.8-0.7,3.4-2,4.7c-1.3,1.3-2.9,2-4.7,2
			h-6.7c-1.8,0-3.4-0.7-4.7-2c-1.3-1.3-2-2.9-2-4.7v-10c0-1.8,0.7-3.4,2-4.7C502.1,1134.8,503.7,1134.1,505.5,1134.1z M505.5,1140.8
			v10c0,0.9,0.3,1.7,1,2.3c0.7,0.7,1.4,1,2.4,1c0.9,0,1.7-0.3,2.4-1c0.7-0.7,1-1.4,1-2.3v-10c0-0.9-0.3-1.7-1-2.4
			c-0.7-0.7-1.4-1-2.4-1c-0.9,0-1.7,0.3-2.4,1S505.5,1139.9,505.5,1140.8z"/>
		<path class="st0" d="M535.3,1157.5v-30h6.7v15l10-8.3h6.7l-14,11.7l14,11.7h-6.7l-10-8.3v8.3H535.3z"/>
		<path class="st0" d="M561.9,1130.8v-3.3h6.7v3.3H561.9z M561.9,1157.5v-23.3h6.7v23.3H561.9z"/>
		<path class="st0" d="M575.3,1157.5v-30h6.7v30H575.3z"/>
		<path class="st0" d="M588.6,1157.5v-30h6.7v30H588.6z"/>
		<path class="st0" d="M615.1,1127.5h6.7v6.7h3.3v3.3h-3.3v13.3c0,1.1,0.4,1.9,1.1,2.5c0.7,0.6,1.4,0.9,2,0.9h0.3v3.3h-3.3
			c-1.8,0-3.4-0.7-4.7-2c-1.3-1.3-2-2.9-2-4.7v-13.3h-3.3v-3.3h3.3V1127.5z"/>
		<path class="st0" d="M631.7,1157.5v-30h6.7v10c0.1-1.1,0.5-2,1-2.5c0.6-0.6,1.3-0.8,2.3-0.8h3.3c1.8,0,3.4,0.7,4.7,2
			c1.3,1.3,2,2.9,2,4.7v16.7h-6.7v-16.7c0-0.9-0.3-1.7-1-2.4c-0.7-0.7-1.4-1-2.4-1c-0.9,0-1.7,0.3-2.4,1s-1,1.4-1,2.4v16.7H631.7z"
			/>
		<path class="st0" d="M678.4,1147.5H665v3.3c0,0.9,0.3,1.7,1,2.3c0.7,0.7,1.4,1,2.4,1h3.3c2.2,0,3.3-1.1,3.3-3.3h3.3
			c-0.5,4.4-2.7,6.7-6.7,6.7H665c-1.8,0-3.4-0.7-4.7-2c-1.3-1.3-2-2.9-2-4.7v-10c0-1.8,0.7-3.4,2-4.7c1.3-1.3,2.9-2,4.7-2h6.7
			c1.8,0,3.4,0.7,4.7,2c1.3,1.3,2,2.9,2,4.7V1147.5z M665,1144.1h6.7v-3.3c0-0.9-0.3-1.7-1-2.4c-0.7-0.7-1.4-1-2.4-1
			c-0.9,0-1.7,0.3-2.4,1s-1,1.4-1,2.4V1144.1z"/>
		<path class="st0" d="M694.8,1157.5v-30h1.5l14.2,14.2l14.2-14.2h3.3v30h-6.7v-18.3l-11.7,11.7l-11.6-11.7v18.3H694.8z"/>
		<path class="st0" d="M734.8,1130.8v-3.3h6.7v3.3H734.8z M734.8,1157.5v-23.3h6.7v23.3H734.8z"/>
		<path class="st0" d="M748.1,1157.5v-23.3h6.7v3.3c0.1-1.1,0.5-2,1-2.5c0.6-0.6,1.3-0.8,2.3-0.8h3.3c1.8,0,3.4,0.7,4.7,2
			c1.3,1.3,2,2.9,2,4.7v16.7h-6.7v-16.7c0-0.9-0.3-1.7-1-2.4c-0.7-0.7-1.4-1-2.4-1c-0.9,0-1.7,0.3-2.4,1s-1,1.4-1,2.4v16.7H748.1z"
			/>
		<path class="st0" d="M781.5,1134.1h6.7c1.8,0,3.4,0.7,4.7,2c1.3,1.3,2,2.9,2,4.7v10c0,1.8-0.7,3.4-2,4.7c-1.3,1.3-2.9,2-4.7,2
			h-6.7c-1.8,0-3.4-0.7-4.7-2c-1.3-1.3-2-2.9-2-4.7v-10c0-1.8,0.7-3.4,2-4.7C778.1,1134.8,779.6,1134.1,781.5,1134.1z M781.5,1140.8
			v10c0,0.9,0.3,1.7,1,2.3c0.7,0.7,1.4,1,2.4,1c0.9,0,1.7-0.3,2.4-1c0.7-0.7,1-1.4,1-2.3v-10c0-0.9-0.3-1.7-1-2.4
			c-0.7-0.7-1.4-1-2.4-1c-0.9,0-1.7,0.3-2.4,1S781.5,1139.9,781.5,1140.8z"/>
		<path class="st0" d="M804.8,1127.5h6.7v6.7h3.3v3.3h-3.3v13.3c0,1.1,0.4,1.9,1.1,2.5c0.7,0.6,1.4,0.9,2,0.9h0.3v3.3h-3.3
			c-1.8,0-3.4-0.7-4.7-2c-1.3-1.3-2-2.9-2-4.7v-13.3h-3.3v-3.3h3.3V1127.5z"/>
		<path class="st0" d="M834.8,1144.1v-3.3c0-0.9-0.3-1.7-1-2.4c-0.7-0.7-1.4-1-2.4-1h-3.3c-2,0-3.1,1.1-3.3,3.3h-3.3
			c0.5-4.5,2.7-6.7,6.7-6.7h6.7c1.8,0,3.4,0.7,4.7,2c1.3,1.3,2,2.9,2,4.7v16.7h-6.7v-3.3c-0.3,2.2-1.4,3.3-3.3,3.3h-3.3
			c-1.8,0-3.4-0.7-4.7-2c-1.3-1.3-2-2.9-2-4.7v0c0-1.8,0.7-3.4,2-4.7c1.3-1.3,2.9-2,4.7-2H834.8z M834.8,1147.5h-3.3
			c-0.9,0-1.7,0.3-2.4,1c-0.7,0.7-1,1.4-1,2.3v0c0,0.9,0.3,1.7,1,2.3c0.7,0.7,1.4,1,2.4,1c0.9,0,1.7-0.3,2.4-1c0.7-0.7,1-1.4,1-2.3
			V1147.5z"/>
		<path class="st0" d="M868.1,1134.1v23.3h-6.7v-3.3c-0.3,2.2-1.4,3.3-3.3,3.3h-3.3c-1.8,0-3.4-0.7-4.7-2c-1.3-1.3-2-2.9-2-4.7
			v-16.7h6.7v16.7c0,0.9,0.3,1.7,1,2.3c0.7,0.7,1.4,1,2.4,1c0.9,0,1.7-0.3,2.4-1c0.7-0.7,1-1.4,1-2.3v-16.7H868.1z"/>
		<path class="st0" d="M881.4,1157.5h-6.7v-23.3h6.7v6.7c0.3-2.2,0.9-3.9,2.1-5c1.1-1.1,2.7-1.7,4.6-1.7h3.3v6.7h-6.7
			c-0.9,0-1.7,0.3-2.4,1c-0.7,0.7-1,1.4-1,2.3V1157.5z"/>
		<path class="st0" d="M904.5,1157.5v-6.7h6.7v6.7H904.5z"/>
	</g>
	<g>
		<path class="st0" d="M242.4,1228.3V1205c0-1.8,0.7-3.4,2-4.7c1.3-1.3,2.9-2,4.7-2h6.7c1.8,0,3.4,0.7,4.7,2c1.3,1.3,2,2.9,2,4.7
			v23.3h-6.7V1215H249v13.3H242.4z M249,1211.7h6.7v-6.7c0-0.9-0.3-1.7-1-2.3c-0.7-0.7-1.4-1-2.4-1c-0.9,0-1.7,0.3-2.4,1
			c-0.7,0.7-1,1.4-1,2.3V1211.7z"/>
		<path class="st0" d="M275.7,1228.3H269V1205h6.7v6.7c0.3-2.2,0.9-3.9,2.1-5c1.1-1.1,2.7-1.7,4.6-1.7h3.3v6.7H279
			c-0.9,0-1.7,0.3-2.4,1c-0.7,0.7-1,1.4-1,2.3V1228.3z"/>
		<path class="st0" d="M289,1201.7v-3.3h6.7v3.3H289z M289,1228.3V1205h6.7v23.3H289z"/>
		<path class="st0" d="M315.7,1215v-3.3c0-0.9-0.3-1.7-1-2.4c-0.7-0.7-1.4-1-2.4-1H309c-2,0-3.1,1.1-3.3,3.3h-3.3
			c0.5-4.5,2.7-6.7,6.7-6.7h6.7c1.8,0,3.4,0.7,4.7,2c1.3,1.3,2,2.9,2,4.7v16.7h-6.7v-3.3c-0.3,2.2-1.4,3.3-3.3,3.3H309
			c-1.8,0-3.4-0.7-4.7-2c-1.3-1.3-2-2.9-2-4.7v0c0-1.8,0.7-3.4,2-4.7c1.3-1.3,2.9-2,4.7-2H315.7z M315.7,1218.3h-3.3
			c-0.9,0-1.7,0.3-2.4,1c-0.7,0.7-1,1.4-1,2.3v0c0,0.9,0.3,1.7,1,2.3c0.7,0.7,1.4,1,2.4,1c0.9,0,1.7-0.3,2.4-1c0.7-0.7,1-1.4,1-2.3
			V1218.3z"/>
		<path class="st0" d="M349,1228.3h-6.7v-3.3c-0.3,2.2-1.4,3.3-3.3,3.3h-3.3c-1.8,0-3.4-0.7-4.7-2c-1.3-1.3-2-2.9-2-4.7v-10
			c0-1.8,0.7-3.4,2-4.7c1.3-1.3,2.9-2,4.7-2h6.7v-6.7h6.7V1228.3z M342.4,1208.3H339c-0.9,0-1.7,0.3-2.4,1s-1,1.4-1,2.4v10
			c0,0.9,0.3,1.7,1,2.3c0.7,0.7,1.4,1,2.4,1c0.9,0,1.7-0.3,2.4-1c0.7-0.7,1-1.4,1-2.3V1208.3z"/>
		<path class="st0" d="M355.7,1228.3V1205h6.7v3.3c0.1-1.1,0.5-2,1-2.5c0.6-0.6,1.3-0.8,2.3-0.8h3.3c1.8,0,3.4,0.7,4.7,2
			c1.3,1.3,2,2.9,2,4.7v16.7H369v-16.7c0-0.9-0.3-1.7-1-2.4c-0.7-0.7-1.4-1-2.4-1c-0.9,0-1.7,0.3-2.4,1s-1,1.4-1,2.4v16.7H355.7z"/>
		<path class="st0" d="M402.4,1218.3H389v3.3c0,0.9,0.3,1.7,1,2.3c0.7,0.7,1.4,1,2.4,1h3.3c2.2,0,3.3-1.1,3.3-3.3h3.3
			c-0.5,4.4-2.7,6.7-6.7,6.7H389c-1.8,0-3.4-0.7-4.7-2c-1.3-1.3-2-2.9-2-4.7v-10c0-1.8,0.7-3.4,2-4.7c1.3-1.3,2.9-2,4.7-2h6.7
			c1.8,0,3.4,0.7,4.7,2c1.3,1.3,2,2.9,2,4.7V1218.3z M389,1215h6.7v-3.3c0-0.9-0.3-1.7-1-2.4c-0.7-0.7-1.4-1-2.4-1
			c-0.9,0-1.7,0.3-2.4,1s-1,1.4-1,2.4V1215z"/>
		<path class="st0" d="M409,1221.7h6.7v6.7c0,3.9-2.2,6.2-6.7,6.7v-3.3c2.1-0.1,3.3-1.2,3.3-3.3H409V1221.7z"/>
		<path class="st0" d="M435.5,1198.3h6.7v6.7h3.3v3.3h-3.3v13.3c0,1.1,0.4,1.9,1.1,2.5c0.7,0.6,1.4,0.9,2,0.9h0.3v3.3h-3.3
			c-1.8,0-3.4-0.7-4.7-2c-1.3-1.3-2-2.9-2-4.7v-13.3h-3.3v-3.3h3.3V1198.3z"/>
		<path class="st0" d="M452.1,1228.3v-30h6.7v10c0.1-1.1,0.5-2,1-2.5c0.6-0.6,1.3-0.8,2.3-0.8h3.3c1.8,0,3.4,0.7,4.7,2
			c1.3,1.3,2,2.9,2,4.7v16.7h-6.7v-16.7c0-0.9-0.3-1.7-1-2.4c-0.7-0.7-1.4-1-2.4-1c-0.9,0-1.7,0.3-2.4,1s-1,1.4-1,2.4v16.7H452.1z"
			/>
		<path class="st0" d="M498.8,1218.3h-13.3v3.3c0,0.9,0.3,1.7,1,2.3c0.7,0.7,1.4,1,2.4,1h3.3c2.2,0,3.3-1.1,3.3-3.3h3.3
			c-0.5,4.4-2.7,6.7-6.7,6.7h-6.7c-1.8,0-3.4-0.7-4.7-2c-1.3-1.3-2-2.9-2-4.7v-10c0-1.8,0.7-3.4,2-4.7c1.3-1.3,2.9-2,4.7-2h6.7
			c1.8,0,3.4,0.7,4.7,2c1.3,1.3,2,2.9,2,4.7V1218.3z M485.4,1215h6.7v-3.3c0-0.9-0.3-1.7-1-2.4c-0.7-0.7-1.4-1-2.4-1
			c-0.9,0-1.7,0.3-2.4,1s-1,1.4-1,2.4V1215z"/>
		<path class="st0" d="M535.2,1228.3h-6.7v-3.3c-0.3,2.2-1.4,3.3-3.3,3.3h-3.3c-1.8,0-3.4-0.7-4.7-2c-1.3-1.3-2-2.9-2-4.7v-10
			c0-1.8,0.7-3.4,2-4.7c1.3-1.3,2.9-2,4.7-2h6.7v-6.7h6.7V1228.3z M528.5,1208.3h-3.3c-0.9,0-1.7,0.3-2.4,1s-1,1.4-1,2.4v10
			c0,0.9,0.3,1.7,1,2.3c0.7,0.7,1.4,1,2.4,1c0.9,0,1.7-0.3,2.4-1c0.7-0.7,1-1.4,1-2.3V1208.3z"/>
		<path class="st0" d="M555.2,1215v-3.3c0-0.9-0.3-1.7-1-2.4c-0.7-0.7-1.4-1-2.4-1h-3.3c-2,0-3.1,1.1-3.3,3.3h-3.3
			c0.5-4.5,2.7-6.7,6.7-6.7h6.7c1.8,0,3.4,0.7,4.7,2c1.3,1.3,2,2.9,2,4.7v16.7h-6.7v-3.3c-0.3,2.2-1.4,3.3-3.3,3.3h-3.3
			c-1.8,0-3.4-0.7-4.7-2c-1.3-1.3-2-2.9-2-4.7v0c0-1.8,0.7-3.4,2-4.7c1.3-1.3,2.9-2,4.7-2H555.2z M555.2,1218.3h-3.3
			c-0.9,0-1.7,0.3-2.4,1c-0.7,0.7-1,1.4-1,2.3v0c0,0.9,0.3,1.7,1,2.3c0.7,0.7,1.4,1,2.4,1c0.9,0,1.7-0.3,2.4-1c0.7-0.7,1-1.4,1-2.3
			V1218.3z"/>
		<path class="st0" d="M588.5,1205v23.3h-6.7v-3.3c-0.3,2.2-1.4,3.3-3.3,3.3h-3.3c-1.8,0-3.4-0.7-4.7-2c-1.3-1.3-2-2.9-2-4.7V1205
			h6.7v16.7c0,0.9,0.3,1.7,1,2.3c0.7,0.7,1.4,1,2.4,1c0.9,0,1.7-0.3,2.4-1c0.7-0.7,1-1.4,1-2.3V1205H588.5z"/>
		<path class="st0" d="M615.2,1205v26.7c0,1.8-0.7,3.4-2,4.7c-1.3,1.3-2.9,2-4.7,2h-6.7c-3.9,0-6.1-2.2-6.7-6.7h3.3
			c0.2,2.2,1.3,3.3,3.3,3.3h3.3c0.9,0,1.7-0.3,2.4-1c0.7-0.7,1-1.4,1-2.3v-6.7c-0.3,2.2-1.4,3.3-3.3,3.3h-3.3c-1.8,0-3.4-0.7-4.7-2
			c-1.3-1.3-2-2.9-2-4.7v-10c0-1.8,0.7-3.4,2-4.7c1.3-1.3,2.9-2,4.7-2H615.2z M608.5,1208.3h-3.3c-0.9,0-1.7,0.3-2.4,1s-1,1.4-1,2.4
			v10c0,0.9,0.3,1.7,1,2.3c0.7,0.7,1.4,1,2.4,1c0.9,0,1.7-0.3,2.4-1c0.7-0.7,1-1.4,1-2.3V1208.3z"/>
		<path class="st0" d="M621.8,1228.3v-30h6.7v10c0.1-1.1,0.5-2,1-2.5c0.6-0.6,1.3-0.8,2.3-0.8h3.3c1.8,0,3.4,0.7,4.7,2
			c1.3,1.3,2,2.9,2,4.7v16.7h-6.7v-16.7c0-0.9-0.3-1.7-1-2.4c-0.7-0.7-1.4-1-2.4-1c-0.9,0-1.7,0.3-2.4,1s-1,1.4-1,2.4v16.7H621.8z"
			/>
		<path class="st0" d="M651.8,1198.3h6.7v6.7h3.3v3.3h-3.3v13.3c0,1.1,0.4,1.9,1.1,2.5c0.7,0.6,1.4,0.9,2,0.9h0.3v3.3h-3.3
			c-1.8,0-3.4-0.7-4.7-2c-1.3-1.3-2-2.9-2-4.7v-13.3h-3.3v-3.3h3.3V1198.3z"/>
		<path class="st0" d="M688.5,1218.3h-13.3v3.3c0,0.9,0.3,1.7,1,2.3c0.7,0.7,1.4,1,2.4,1h3.3c2.2,0,3.3-1.1,3.3-3.3h3.3
			c-0.5,4.4-2.7,6.7-6.7,6.7h-6.7c-1.8,0-3.4-0.7-4.7-2c-1.3-1.3-2-2.9-2-4.7v-10c0-1.8,0.7-3.4,2-4.7c1.3-1.3,2.9-2,4.7-2h6.7
			c1.8,0,3.4,0.7,4.7,2c1.3,1.3,2,2.9,2,4.7V1218.3z M675.1,1215h6.7v-3.3c0-0.9-0.3-1.7-1-2.4c-0.7-0.7-1.4-1-2.4-1
			c-0.9,0-1.7,0.3-2.4,1s-1,1.4-1,2.4V1215z"/>
		<path class="st0" d="M701.8,1228.3h-6.7V1205h6.7v6.7c0.3-2.2,0.9-3.9,2.1-5c1.1-1.1,2.7-1.7,4.6-1.7h3.3v6.7h-6.7
			c-0.9,0-1.7,0.3-2.4,1c-0.7,0.7-1,1.4-1,2.3V1228.3z"/>
		<path class="st0" d="M731.6,1205h6.7c1.8,0,3.4,0.7,4.7,2c1.3,1.3,2,2.9,2,4.7v10c0,1.8-0.7,3.4-2,4.7c-1.3,1.3-2.9,2-4.7,2h-6.7
			c-1.8,0-3.4-0.7-4.7-2c-1.3-1.3-2-2.9-2-4.7v-10c0-1.8,0.7-3.4,2-4.7C728.2,1205.7,729.7,1205,731.6,1205z M731.6,1211.7v10
			c0,0.9,0.3,1.7,1,2.3c0.7,0.7,1.4,1,2.4,1c0.9,0,1.7-0.3,2.4-1c0.7-0.7,1-1.4,1-2.3v-10c0-0.9-0.3-1.7-1-2.4c-0.7-0.7-1.4-1-2.4-1
			c-0.9,0-1.7,0.3-2.4,1S731.6,1210.8,731.6,1211.7z"/>
		<path class="st0" d="M754.9,1228.3v-20h-3.3v-3.3h3.3v-0.3c0-1.7,0.6-3.2,1.9-4.5s2.7-1.9,4.5-1.9h7v3.3h-3.6
			c-0.8,0-1.5,0.3-2.1,0.9c-0.6,0.6-0.9,1.3-0.9,2.1v0.3h3.3v3.3h-3.3v20H754.9z"/>
		<path class="st0" d="M781.3,1228.3v-30h6.7v12.2l10.8-12.2h5.9l-13.3,15l13.3,15H798l-10-11.7v11.7H781.3z"/>
		<path class="st0" d="M811.3,1201.7v-3.3h6.7v3.3H811.3z M811.3,1228.3V1205h6.7v23.3H811.3z"/>
		<path class="st0" d="M824.7,1228.3V1205h6.7v3.3c0.1-1.1,0.5-2,1-2.5c0.6-0.6,1.3-0.8,2.3-0.8h3.3c1.8,0,3.4,0.7,4.7,2
			c1.3,1.3,2,2.9,2,4.7v16.7H838v-16.7c0-0.9-0.3-1.7-1-2.4c-0.7-0.7-1.4-1-2.4-1c-0.9,0-1.7,0.3-2.4,1s-1,1.4-1,2.4v16.7H824.7z"/>
		<path class="st0" d="M871.3,1205v26.7c0,1.8-0.7,3.4-2,4.7c-1.3,1.3-2.9,2-4.7,2H858c-3.9,0-6.1-2.2-6.7-6.7h3.3
			c0.2,2.2,1.3,3.3,3.3,3.3h3.3c0.9,0,1.7-0.3,2.4-1c0.7-0.7,1-1.4,1-2.3v-6.7c-0.3,2.2-1.4,3.3-3.3,3.3H858c-1.8,0-3.4-0.7-4.7-2
			c-1.3-1.3-2-2.9-2-4.7v-10c0-1.8,0.7-3.4,2-4.7c1.3-1.3,2.9-2,4.7-2H871.3z M864.7,1208.3h-3.3c-0.9,0-1.7,0.3-2.4,1s-1,1.4-1,2.4
			v10c0,0.9,0.3,1.7,1,2.3c0.7,0.7,1.4,1,2.4,1c0.9,0,1.7-0.3,2.4-1c0.7-0.7,1-1.4,1-2.3V1208.3z"/>
	</g>
	<g>
		<path class="st0" d="M270.8,1299.2v-30h1.5l14.2,14.2l14.2-14.2h3.3v30h-6.7v-18.3l-11.7,11.7l-11.6-11.7v18.3H270.8z"/>
		<path class="st0" d="M310.8,1272.6v-3.3h6.7v3.3H310.8z M310.8,1299.2v-23.3h6.7v23.3H310.8z"/>
		<path class="st0" d="M324.1,1299.2v-23.3h6.7v3.3c0.1-1.1,0.5-2,1-2.5c0.6-0.6,1.3-0.8,2.3-0.8h3.3c1.8,0,3.4,0.7,4.7,2
			c1.3,1.3,2,2.9,2,4.7v16.7h-6.7v-16.7c0-0.9-0.3-1.7-1-2.4c-0.7-0.7-1.4-1-2.4-1c-0.9,0-1.7,0.3-2.4,1s-1,1.4-1,2.4v16.7H324.1z"
			/>
		<path class="st0" d="M357.4,1275.9h6.7c1.8,0,3.4,0.7,4.7,2c1.3,1.3,2,2.9,2,4.7v10c0,1.8-0.7,3.4-2,4.7c-1.3,1.3-2.9,2-4.7,2
			h-6.7c-1.8,0-3.4-0.7-4.7-2c-1.3-1.3-2-2.9-2-4.7v-10c0-1.8,0.7-3.4,2-4.7C354.1,1276.5,355.6,1275.9,357.4,1275.9z M357.4,1282.6
			v10c0,0.9,0.3,1.7,1,2.3c0.7,0.7,1.4,1,2.4,1c0.9,0,1.7-0.3,2.4-1c0.7-0.7,1-1.4,1-2.3v-10c0-0.9-0.3-1.7-1-2.4
			c-0.7-0.7-1.4-1-2.4-1c-0.9,0-1.7,0.3-2.4,1S357.4,1281.6,357.4,1282.6z"/>
		<path class="st0" d="M394.1,1282.6h-3.3c-0.3-2.2-1.3-3.3-3.2-3.3c-1.2,0-2.1,0.2-2.7,0.7c-0.6,0.5-0.9,1.2-0.9,2.1
			c0,1,1.6,2.3,4.9,4c2.6,1.4,4.2,2.6,4.6,3.5c0.4,0.9,0.6,1.9,0.6,3c0,1.9-0.7,3.4-2,4.7c-1.3,1.3-2.9,2-4.7,2h-3.3
			c-4.4,0-6.7-2.2-6.7-6.7h3.3c0.3,2.2,1.3,3.3,3.1,3.3c1.2,0,2.1-0.2,2.7-0.7s0.9-1.2,0.9-2.1c0-0.9-1.6-2.3-4.8-4
			c-2.6-1.4-4.2-2.6-4.6-3.5c-0.4-0.9-0.6-1.9-0.6-3c0-1.9,0.7-3.5,2-4.8c1.3-1.3,2.9-2,4.7-2h3.3
			C391.6,1275.9,393.8,1278.1,394.1,1282.6z"/>
		<path class="st0" d="M400.8,1292.6h6.7v6.7c0,3.9-2.2,6.2-6.7,6.7v-3.3c2.1-0.1,3.3-1.2,3.3-3.3h-3.3V1292.6z"/>
		<path class="st0" d="M427.2,1299.2v-20h-3.3v-3.3h3.3v-0.3c0-1.7,0.6-3.2,1.9-4.5s2.7-1.9,4.5-1.9h7v3.3h-3.6
			c-0.8,0-1.5,0.3-2.1,0.9c-0.6,0.6-0.9,1.3-0.9,2.1v0.3h3.3v3.3h-3.3v20H427.2z"/>
		<path class="st0" d="M457.2,1285.9v-3.3c0-0.9-0.3-1.7-1-2.4c-0.7-0.7-1.4-1-2.4-1h-3.3c-2,0-3.1,1.1-3.3,3.3h-3.3
			c0.5-4.5,2.7-6.7,6.7-6.7h6.7c1.8,0,3.4,0.7,4.7,2c1.3,1.3,2,2.9,2,4.7v16.7h-6.7v-3.3c-0.3,2.2-1.4,3.3-3.3,3.3h-3.3
			c-1.8,0-3.4-0.7-4.7-2c-1.3-1.3-2-2.9-2-4.7v0c0-1.8,0.7-3.4,2-4.7c1.3-1.3,2.9-2,4.7-2H457.2z M457.2,1289.2h-3.3
			c-0.9,0-1.7,0.3-2.4,1c-0.7,0.7-1,1.4-1,2.3v0c0,0.9,0.3,1.7,1,2.3c0.7,0.7,1.4,1,2.4,1c0.9,0,1.7-0.3,2.4-1c0.7-0.7,1-1.4,1-2.3
			V1289.2z"/>
		<path class="st0" d="M470.5,1299.2v-30h6.7v30H470.5z"/>
		<path class="st0" d="M483.9,1299.2v-30h6.7v30H483.9z"/>
		<path class="st0" d="M507,1272.6v-3.3h6.7v3.3H507z M507,1299.2v-23.3h6.7v23.3H507z"/>
		<path class="st0" d="M520.3,1299.2v-23.3h6.7v3.3c0.1-1.1,0.5-2,1-2.5c0.6-0.6,1.3-0.8,2.3-0.8h3.3c1.8,0,3.4,0.7,4.7,2
			c1.3,1.3,2,2.9,2,4.7v16.7h-6.7v-16.7c0-0.9-0.3-1.7-1-2.4c-0.7-0.7-1.4-1-2.4-1c-0.9,0-1.7,0.3-2.4,1s-1,1.4-1,2.4v16.7H520.3z"
			/>
		<path class="st0" d="M556.8,1299.2v-30h6.7v30H556.8z"/>
		<path class="st0" d="M576.8,1275.9h6.7c1.8,0,3.4,0.7,4.7,2c1.3,1.3,2,2.9,2,4.7v10c0,1.8-0.7,3.4-2,4.7c-1.3,1.3-2.9,2-4.7,2
			h-6.7c-1.8,0-3.4-0.7-4.7-2c-1.3-1.3-2-2.9-2-4.7v-10c0-1.8,0.7-3.4,2-4.7C573.4,1276.5,574.9,1275.9,576.8,1275.9z M576.8,1282.6
			v10c0,0.9,0.3,1.7,1,2.3c0.7,0.7,1.4,1,2.4,1c0.9,0,1.7-0.3,2.4-1c0.7-0.7,1-1.4,1-2.3v-10c0-0.9-0.3-1.7-1-2.4
			c-0.7-0.7-1.4-1-2.4-1c-0.9,0-1.7,0.3-2.4,1S576.8,1281.6,576.8,1282.6z"/>
		<path class="st0" d="M610.1,1275.9h6.7v12c0,3.1-1.1,5.8-3.4,8c-2.2,2.2-4.9,3.4-8,3.4h-8.6v-23.3h6.7v20h3.3c0.9,0,1.7-0.3,2.4-1
			c0.7-0.7,1-1.4,1-2.3V1275.9z"/>
		<path class="st0" d="M643.4,1289.2h-13.3v3.3c0,0.9,0.3,1.7,1,2.3c0.7,0.7,1.4,1,2.4,1h3.3c2.2,0,3.3-1.1,3.3-3.3h3.3
			c-0.5,4.4-2.7,6.7-6.7,6.7h-6.7c-1.8,0-3.4-0.7-4.7-2c-1.3-1.3-2-2.9-2-4.7v-10c0-1.8,0.7-3.4,2-4.7c1.3-1.3,2.9-2,4.7-2h6.7
			c1.8,0,3.4,0.7,4.7,2c1.3,1.3,2,2.9,2,4.7V1289.2z M630.1,1285.9h6.7v-3.3c0-0.9-0.3-1.7-1-2.4c-0.7-0.7-1.4-1-2.4-1
			c-0.9,0-1.7,0.3-2.4,1s-1,1.4-1,2.4V1285.9z"/>
		<path class="st0" d="M659.8,1275.9h6.7v20h3.3c0.9,0,1.7-0.3,2.4-1c0.7-0.7,1-1.4,1-2.3v-16.7h6.7v20h3.3c0.9,0,1.7-0.3,2.3-1
			c0.7-0.7,1-1.4,1-2.3v-16.7h6.7v12c0,3.1-1.1,5.8-3.4,8c-2.2,2.2-4.9,3.4-8,3.4h-8.6v-1.1c-1.3,0.7-2.9,1.1-4.7,1.1h-8.6V1275.9z"
			/>
		<path class="st0" d="M699.8,1272.6v-3.3h6.7v3.3H699.8z M699.8,1299.2v-23.3h6.7v23.3H699.8z"/>
		<path class="st0" d="M716.5,1269.2h6.7v6.7h3.3v3.3h-3.3v13.3c0,1.1,0.4,1.9,1.1,2.5c0.7,0.6,1.4,0.9,2,0.9h0.3v3.3h-3.3
			c-1.8,0-3.4-0.7-4.7-2c-1.3-1.3-2-2.9-2-4.7v-13.3h-3.3v-3.3h3.3V1269.2z"/>
		<path class="st0" d="M733.2,1299.2v-30h6.7v10c0.1-1.1,0.5-2,1-2.5c0.6-0.6,1.3-0.8,2.3-0.8h3.3c1.8,0,3.4,0.7,4.7,2
			c1.3,1.3,2,2.9,2,4.7v16.7h-6.7v-16.7c0-0.9-0.3-1.7-1-2.4c-0.7-0.7-1.4-1-2.4-1c-0.9,0-1.7,0.3-2.4,1s-1,1.4-1,2.4v16.7H733.2z"
			/>
		<path class="st0" d="M769.6,1299.2v-30h6.7v10c0.1-1.1,0.5-2,1-2.5c0.6-0.6,1.3-0.8,2.3-0.8h3.3c1.8,0,3.4,0.7,4.7,2
			c1.3,1.3,2,2.9,2,4.7v16.7h-6.7v-16.7c0-0.9-0.3-1.7-1-2.4c-0.7-0.7-1.4-1-2.4-1c-0.9,0-1.7,0.3-2.4,1s-1,1.4-1,2.4v16.7H769.6z"
			/>
		<path class="st0" d="M796.3,1272.6v-3.3h6.7v3.3H796.3z M796.3,1299.2v-23.3h6.7v23.3H796.3z"/>
		<path class="st0" d="M829.6,1299.2h-6.7v-16.7c0-0.9-0.3-1.7-1-2.4c-0.7-0.7-1.4-1-2.4-1c-0.9,0-1.7,0.3-2.4,1s-1,1.4-1,2.4v16.7
			h-6.7v-23.3h6.7v3.3c0.1-1.1,0.5-2,1-2.5c0.6-0.6,1.3-0.8,2.3-0.8h3.3c2.3,0,3.9,0.8,5,2.4c0.5-0.8,1.2-1.4,2-1.8
			c0.8-0.4,1.8-0.6,3-0.6h3.3c1.8,0,3.4,0.7,4.7,2c1.3,1.3,2,2.9,2,4.7v16.7h-6.7v-16.7c0-0.9-0.3-1.7-1-2.4c-0.7-0.7-1.4-1-2.3-1
			c-0.9,0-1.7,0.3-2.4,1s-1,1.4-1,2.4V1299.2z"/>
	</g>
	<g>
		<path class="st0" d="M267.4,1356.7v-3.3c0-0.9-0.3-1.7-1-2.4c-0.7-0.7-1.4-1-2.4-1h-3.3c-2,0-3.1,1.1-3.3,3.3H254
			c0.5-4.5,2.7-6.7,6.7-6.7h6.7c1.8,0,3.4,0.7,4.7,2c1.3,1.3,2,2.9,2,4.7v16.7h-6.7v-3.3c-0.3,2.2-1.4,3.3-3.3,3.3h-3.3
			c-1.8,0-3.4-0.7-4.7-2c-1.3-1.3-2-2.9-2-4.7v0c0-1.8,0.7-3.4,2-4.7c1.3-1.3,2.9-2,4.7-2H267.4z M267.4,1360.1H264
			c-0.9,0-1.7,0.3-2.4,1c-0.7,0.7-1,1.4-1,2.3v0c0,0.9,0.3,1.7,1,2.3c0.7,0.7,1.4,1,2.4,1c0.9,0,1.7-0.3,2.4-1c0.7-0.7,1-1.4,1-2.3
			V1360.1z"/>
		<path class="st0" d="M280.7,1370.1v-23.3h6.7v3.3c0.1-1.1,0.5-2,1-2.5c0.6-0.6,1.3-0.8,2.3-0.8h3.3c1.8,0,3.4,0.7,4.7,2
			c1.3,1.3,2,2.9,2,4.7v16.7H294v-16.7c0-0.9-0.3-1.7-1-2.4c-0.7-0.7-1.4-1-2.4-1c-0.9,0-1.7,0.3-2.4,1s-1,1.4-1,2.4v16.7H280.7z"/>
		<path class="st0" d="M327.4,1370.1h-6.7v-3.3c-0.3,2.2-1.4,3.3-3.3,3.3H314c-1.8,0-3.4-0.7-4.7-2c-1.3-1.3-2-2.9-2-4.7v-10
			c0-1.8,0.7-3.4,2-4.7c1.3-1.3,2.9-2,4.7-2h6.7v-6.7h6.7V1370.1z M320.7,1350.1h-3.3c-0.9,0-1.7,0.3-2.4,1s-1,1.4-1,2.4v10
			c0,0.9,0.3,1.7,1,2.3c0.7,0.7,1.4,1,2.4,1c0.9,0,1.7-0.3,2.4-1c0.7-0.7,1-1.4,1-2.3V1350.1z"/>
		<path class="st0" d="M343.8,1370.1v-30h6.7v10c0.1-1.1,0.5-2,1-2.5c0.6-0.6,1.3-0.8,2.3-0.8h3.3c1.8,0,3.4,0.7,4.7,2
			c1.3,1.3,2,2.9,2,4.7v16.7h-6.7v-16.7c0-0.9-0.3-1.7-1-2.4c-0.7-0.7-1.4-1-2.4-1c-0.9,0-1.7,0.3-2.4,1s-1,1.4-1,2.4v16.7H343.8z"
			/>
		<path class="st0" d="M390.4,1360.1h-13.3v3.3c0,0.9,0.3,1.7,1,2.3c0.7,0.7,1.4,1,2.4,1h3.3c2.2,0,3.3-1.1,3.3-3.3h3.3
			c-0.5,4.4-2.7,6.7-6.7,6.7h-6.7c-1.8,0-3.4-0.7-4.7-2c-1.3-1.3-2-2.9-2-4.7v-10c0-1.8,0.7-3.4,2-4.7c1.3-1.3,2.9-2,4.7-2h6.7
			c1.8,0,3.4,0.7,4.7,2c1.3,1.3,2,2.9,2,4.7V1360.1z M377.1,1356.7h6.7v-3.3c0-0.9-0.3-1.7-1-2.4c-0.7-0.7-1.4-1-2.4-1
			c-0.9,0-1.7,0.3-2.4,1s-1,1.4-1,2.4V1356.7z"/>
		<path class="st0" d="M397.1,1370.1v-30h6.7v30H397.1z"/>
		<path class="st0" d="M410.4,1346.7h6.7v3.3c0-1.1,0.3-2,0.8-2.5c0.6-0.6,1.4-0.8,2.5-0.8h3.3c1.8,0,3.4,0.7,4.7,2
			c1.3,1.3,2,2.9,2,4.7v10c0,1.8-0.7,3.4-2,4.7c-1.3,1.3-2.9,2-4.7,2h-6.7v6.7h-6.7V1346.7z M417.1,1366.7h3.3c0.9,0,1.7-0.3,2.4-1
			c0.7-0.7,1-1.4,1-2.3v-10c0-0.9-0.3-1.7-1-2.4c-0.7-0.7-1.4-1-2.4-1c-0.9,0-1.7,0.3-2.4,1s-1,1.4-1,2.4V1366.7z"/>
		<path class="st0" d="M457.1,1360.1h-13.3v3.3c0,0.9,0.3,1.7,1,2.3c0.7,0.7,1.4,1,2.4,1h3.3c2.2,0,3.3-1.1,3.3-3.3h3.3
			c-0.5,4.4-2.7,6.7-6.7,6.7h-6.7c-1.8,0-3.4-0.7-4.7-2c-1.3-1.3-2-2.9-2-4.7v-10c0-1.8,0.7-3.4,2-4.7c1.3-1.3,2.9-2,4.7-2h6.7
			c1.8,0,3.4,0.7,4.7,2c1.3,1.3,2,2.9,2,4.7V1360.1z M443.7,1356.7h6.7v-3.3c0-0.9-0.3-1.7-1-2.4c-0.7-0.7-1.4-1-2.4-1
			c-0.9,0-1.7,0.3-2.4,1s-1,1.4-1,2.4V1356.7z"/>
		<path class="st0" d="M483.7,1370.1h-6.7v-3.3c-0.3,2.2-1.4,3.3-3.3,3.3h-3.3c-1.8,0-3.4-0.7-4.7-2c-1.3-1.3-2-2.9-2-4.7v-10
			c0-1.8,0.7-3.4,2-4.7c1.3-1.3,2.9-2,4.7-2h6.7v-6.7h6.7V1370.1z M477.1,1350.1h-3.3c-0.9,0-1.7,0.3-2.4,1s-1,1.4-1,2.4v10
			c0,0.9,0.3,1.7,1,2.3c0.7,0.7,1.4,1,2.4,1c0.9,0,1.7-0.3,2.4-1c0.7-0.7,1-1.4,1-2.3V1350.1z"/>
		<path class="st0" d="M500.2,1370.1v-30h6.7v10c0.1-1.1,0.5-2,1-2.5c0.6-0.6,1.3-0.8,2.3-0.8h3.3c1.8,0,3.4,0.7,4.7,2
			c1.3,1.3,2,2.9,2,4.7v16.7h-6.7v-16.7c0-0.9-0.3-1.7-1-2.4c-0.7-0.7-1.4-1-2.4-1c-0.9,0-1.7,0.3-2.4,1s-1,1.4-1,2.4v16.7H500.2z"
			/>
		<path class="st0" d="M526.8,1343.4v-3.3h6.7v3.3H526.8z M526.8,1370.1v-23.3h6.7v23.3H526.8z"/>
		<path class="st0" d="M560.2,1370.1h-6.7v-16.7c0-0.9-0.3-1.7-1-2.4c-0.7-0.7-1.4-1-2.4-1c-0.9,0-1.7,0.3-2.4,1s-1,1.4-1,2.4v16.7
			h-6.7v-23.3h6.7v3.3c0.1-1.1,0.5-2,1-2.5c0.6-0.6,1.3-0.8,2.3-0.8h3.3c2.3,0,3.9,0.8,5,2.4c0.5-0.8,1.2-1.4,2-1.8
			c0.8-0.4,1.8-0.6,3-0.6h3.3c1.8,0,3.4,0.7,4.7,2c1.3,1.3,2,2.9,2,4.7v16.7h-6.7v-16.7c0-0.9-0.3-1.7-1-2.4c-0.7-0.7-1.4-1-2.3-1
			c-0.9,0-1.7,0.3-2.4,1s-1,1.4-1,2.4V1370.1z"/>
		<path class="st0" d="M589.9,1370.1v-30h6.7v10c0.1-1.1,0.5-2,1-2.5c0.6-0.6,1.3-0.8,2.3-0.8h3.3c1.8,0,3.4,0.7,4.7,2
			c1.3,1.3,2,2.9,2,4.7v10c0,1.8-0.7,3.4-2,4.7c-1.3,1.3-2.9,2-4.7,2H589.9z M596.6,1366.7h3.3c0.9,0,1.7-0.3,2.4-1
			c0.7-0.7,1-1.4,1-2.3v-10c0-0.9-0.3-1.7-1-2.4c-0.7-0.7-1.4-1-2.4-1c-0.9,0-1.7,0.3-2.4,1s-1,1.4-1,2.4V1366.7z"/>
		<path class="st0" d="M619.9,1373.4c0.2,2.2,1.3,3.3,3.3,3.3h3.3c0.9,0,1.7-0.3,2.4-1c0.7-0.7,1-1.4,1-2.3v-6.7
			c-0.3,2.2-1.4,3.3-3.3,3.3h-3.3c-1.8,0-3.4-0.7-4.7-2c-1.3-1.3-2-2.9-2-4.7v-16.7h6.7v16.7c0,0.9,0.3,1.7,1,2.3
			c0.7,0.7,1.4,1,2.4,1c0.9,0,1.7-0.3,2.4-1c0.7-0.7,1-1.4,1-2.3v-16.7h6.7v26.7c0,1.8-0.7,3.4-2,4.7c-1.3,1.3-2.9,2-4.7,2h-6.7
			c-3.9,0-6.1-2.2-6.7-6.7H619.9z"/>
		<path class="st0" d="M673,1346.7v26.7c0,1.8-0.7,3.4-2,4.7c-1.3,1.3-2.9,2-4.7,2h-6.7c-3.9,0-6.1-2.2-6.7-6.7h3.3
			c0.2,2.2,1.3,3.3,3.3,3.3h3.3c0.9,0,1.7-0.3,2.4-1c0.7-0.7,1-1.4,1-2.3v-6.7c-0.3,2.2-1.4,3.3-3.3,3.3h-3.3c-1.8,0-3.4-0.7-4.7-2
			c-1.3-1.3-2-2.9-2-4.7v-10c0-1.8,0.7-3.4,2-4.7c1.3-1.3,2.9-2,4.7-2H673z M666.3,1350.1H663c-0.9,0-1.7,0.3-2.4,1s-1,1.4-1,2.4v10
			c0,0.9,0.3,1.7,1,2.3c0.7,0.7,1.4,1,2.4,1c0.9,0,1.7-0.3,2.4-1c0.7-0.7,1-1.4,1-2.3V1350.1z"/>
		<path class="st0" d="M679.7,1343.4v-3.3h6.7v3.3H679.7z M679.7,1370.1v-23.3h6.7v23.3H679.7z"/>
		<path class="st0" d="M706.3,1346.7h6.7v12c0,3.1-1.1,5.8-3.4,8c-2.2,2.2-4.9,3.4-8,3.4H693v-23.3h6.7v20h3.3c0.9,0,1.7-0.3,2.4-1
			c0.7-0.7,1-1.4,1-2.3V1346.7z"/>
		<path class="st0" d="M719.7,1343.4v-3.3h6.7v3.3H719.7z M719.7,1370.1v-23.3h6.7v23.3H719.7z"/>
		<path class="st0" d="M733,1370.1v-23.3h6.7v3.3c0.1-1.1,0.5-2,1-2.5c0.6-0.6,1.3-0.8,2.3-0.8h3.3c1.8,0,3.4,0.7,4.7,2
			c1.3,1.3,2,2.9,2,4.7v16.7h-6.7v-16.7c0-0.9-0.3-1.7-1-2.4c-0.7-0.7-1.4-1-2.4-1c-0.9,0-1.7,0.3-2.4,1s-1,1.4-1,2.4v16.7H733z"/>
		<path class="st0" d="M779.7,1346.7v26.7c0,1.8-0.7,3.4-2,4.7c-1.3,1.3-2.9,2-4.7,2h-6.7c-3.9,0-6.1-2.2-6.7-6.7h3.3
			c0.2,2.2,1.3,3.3,3.3,3.3h3.3c0.9,0,1.7-0.3,2.4-1c0.7-0.7,1-1.4,1-2.3v-6.7c-0.3,2.2-1.4,3.3-3.3,3.3h-3.3c-1.8,0-3.4-0.7-4.7-2
			c-1.3-1.3-2-2.9-2-4.7v-10c0-1.8,0.7-3.4,2-4.7c1.3-1.3,2.9-2,4.7-2H779.7z M773,1350.1h-3.3c-0.9,0-1.7,0.3-2.4,1s-1,1.4-1,2.4
			v10c0,0.9,0.3,1.7,1,2.3c0.7,0.7,1.4,1,2.4,1c0.9,0,1.7-0.3,2.4-1c0.7-0.7,1-1.4,1-2.3V1350.1z"/>
		<path class="st0" d="M796.1,1370.1v-30h6.7v10c0.1-1.1,0.5-2,1-2.5c0.6-0.6,1.3-0.8,2.3-0.8h3.3c1.8,0,3.4,0.7,4.7,2
			c1.3,1.3,2,2.9,2,4.7v16.7h-6.7v-16.7c0-0.9-0.3-1.7-1-2.4c-0.7-0.7-1.4-1-2.4-1c-0.9,0-1.7,0.3-2.4,1s-1,1.4-1,2.4v16.7H796.1z"
			/>
		<path class="st0" d="M822.7,1343.4v-3.3h6.7v3.3H822.7z M822.7,1370.1v-23.3h6.7v23.3H822.7z"/>
		<path class="st0" d="M856.1,1370.1h-6.7v-16.7c0-0.9-0.3-1.7-1-2.4c-0.7-0.7-1.4-1-2.4-1c-0.9,0-1.7,0.3-2.4,1s-1,1.4-1,2.4v16.7
			h-6.7v-23.3h6.7v3.3c0.1-1.1,0.5-2,1-2.5c0.6-0.6,1.3-0.8,2.3-0.8h3.3c2.3,0,3.9,0.8,5,2.4c0.5-0.8,1.2-1.4,2-1.8
			c0.8-0.4,1.8-0.6,3-0.6h3.3c1.8,0,3.4,0.7,4.7,2c1.3,1.3,2,2.9,2,4.7v16.7h-6.7v-16.7c0-0.9-0.3-1.7-1-2.4c-0.7-0.7-1.4-1-2.3-1
			c-0.9,0-1.7,0.3-2.4,1s-1,1.4-1,2.4V1370.1z"/>
	</g>
	<g>
		<path class="st0" d="M272.6,1427.6v-3.3c0-0.9-0.3-1.7-1-2.4c-0.7-0.7-1.4-1-2.4-1h-3.3c-2,0-3.1,1.1-3.3,3.3h-3.3
			c0.5-4.5,2.7-6.7,6.7-6.7h6.7c1.8,0,3.4,0.7,4.7,2c1.3,1.3,2,2.9,2,4.7v16.7h-6.7v-3.3c-0.3,2.2-1.4,3.3-3.3,3.3h-3.3
			c-1.8,0-3.4-0.7-4.7-2c-1.3-1.3-2-2.9-2-4.7v0c0-1.8,0.7-3.4,2-4.7c1.3-1.3,2.9-2,4.7-2H272.6z M272.6,1430.9h-3.3
			c-0.9,0-1.7,0.3-2.4,1c-0.7,0.7-1,1.4-1,2.3v0c0,0.9,0.3,1.7,1,2.3c0.7,0.7,1.4,1,2.4,1c0.9,0,1.7-0.3,2.4-1c0.7-0.7,1-1.4,1-2.3
			V1430.9z"/>
		<path class="st0" d="M312.4,1424.3H309c-0.3-2.2-1.3-3.3-3.2-3.3c-1.2,0-2.1,0.2-2.7,0.7c-0.6,0.5-0.9,1.2-0.9,2.1
			c0,1,1.6,2.3,4.9,4c2.6,1.4,4.2,2.6,4.6,3.5c0.4,0.9,0.6,1.9,0.6,3c0,1.9-0.7,3.4-2,4.7c-1.3,1.3-2.9,2-4.7,2h-3.3
			c-4.4,0-6.7-2.2-6.7-6.7h3.3c0.3,2.2,1.3,3.3,3.1,3.3c1.2,0,2.1-0.2,2.7-0.7s0.9-1.2,0.9-2.1c0-0.9-1.6-2.3-4.8-4
			c-2.6-1.4-4.2-2.6-4.6-3.5c-0.4-0.9-0.6-1.9-0.6-3c0-1.9,0.7-3.5,2-4.8c1.3-1.3,2.9-2,4.7-2h3.3
			C309.9,1417.6,312.1,1419.8,312.4,1424.3z"/>
		<path class="st0" d="M319,1417.6h6.7v20h3.3c0.9,0,1.7-0.3,2.4-1c0.7-0.7,1-1.4,1-2.3v-16.7h6.7v20h3.3c0.9,0,1.7-0.3,2.3-1
			c0.7-0.7,1-1.4,1-2.3v-16.7h6.7v12c0,3.1-1.1,5.8-3.4,8c-2.2,2.2-4.9,3.4-8,3.4h-8.6v-1.1c-1.3,0.7-2.9,1.1-4.7,1.1H319V1417.6z"
			/>
		<path class="st0" d="M365.7,1417.6h6.7c1.8,0,3.4,0.7,4.7,2c1.3,1.3,2,2.9,2,4.7v10c0,1.8-0.7,3.4-2,4.7c-1.3,1.3-2.9,2-4.7,2
			h-6.7c-1.8,0-3.4-0.7-4.7-2c-1.3-1.3-2-2.9-2-4.7v-10c0-1.8,0.7-3.4,2-4.7C362.3,1418.2,363.9,1417.6,365.7,1417.6z M365.7,1424.3
			v10c0,0.9,0.3,1.7,1,2.3c0.7,0.7,1.4,1,2.4,1c0.9,0,1.7-0.3,2.4-1c0.7-0.7,1-1.4,1-2.3v-10c0-0.9-0.3-1.7-1-2.4
			c-0.7-0.7-1.4-1-2.4-1c-0.9,0-1.7,0.3-2.4,1S365.7,1423.4,365.7,1424.3z"/>
		<path class="st0" d="M392.4,1440.9h-6.7v-23.3h6.7v6.7c0.3-2.2,0.9-3.9,2.1-5c1.1-1.1,2.7-1.7,4.6-1.7h3.3v6.7h-6.7
			c-0.9,0-1.7,0.3-2.4,1c-0.7,0.7-1,1.4-1,2.3V1440.9z"/>
		<path class="st0" d="M425.7,1440.9H419v-3.3c-0.3,2.2-1.4,3.3-3.3,3.3h-3.3c-1.8,0-3.4-0.7-4.7-2c-1.3-1.3-2-2.9-2-4.7v-10
			c0-1.8,0.7-3.4,2-4.7c1.3-1.3,2.9-2,4.7-2h6.7v-6.7h6.7V1440.9z M419,1420.9h-3.3c-0.9,0-1.7,0.3-2.4,1s-1,1.4-1,2.4v10
			c0,0.9,0.3,1.7,1,2.3c0.7,0.7,1.4,1,2.4,1c0.9,0,1.7-0.3,2.4-1c0.7-0.7,1-1.4,1-2.3V1420.9z"/>
		<path class="st0" d="M455.5,1427.6v-3.3c0-0.9-0.3-1.7-1-2.4c-0.7-0.7-1.4-1-2.4-1h-3.3c-2,0-3.1,1.1-3.3,3.3h-3.3
			c0.5-4.5,2.7-6.7,6.7-6.7h6.7c1.8,0,3.4,0.7,4.7,2c1.3,1.3,2,2.9,2,4.7v16.7h-6.7v-3.3c-0.3,2.2-1.4,3.3-3.3,3.3h-3.3
			c-1.8,0-3.4-0.7-4.7-2c-1.3-1.3-2-2.9-2-4.7v0c0-1.8,0.7-3.4,2-4.7c1.3-1.3,2.9-2,4.7-2H455.5z M455.5,1430.9h-3.3
			c-0.9,0-1.7,0.3-2.4,1c-0.7,0.7-1,1.4-1,2.3v0c0,0.9,0.3,1.7,1,2.3c0.7,0.7,1.4,1,2.4,1c0.9,0,1.7-0.3,2.4-1c0.7-0.7,1-1.4,1-2.3
			V1430.9z"/>
		<path class="st0" d="M468.8,1440.9v-23.3h6.7v3.3c0.1-1.1,0.5-2,1-2.5c0.6-0.6,1.3-0.8,2.3-0.8h3.3c1.8,0,3.4,0.7,4.7,2
			c1.3,1.3,2,2.9,2,4.7v16.7h-6.7v-16.7c0-0.9-0.3-1.7-1-2.4c-0.7-0.7-1.4-1-2.4-1c-0.9,0-1.7,0.3-2.4,1s-1,1.4-1,2.4v16.7H468.8z"
			/>
		<path class="st0" d="M515.4,1440.9h-6.7v-3.3c-0.3,2.2-1.4,3.3-3.3,3.3h-3.3c-1.8,0-3.4-0.7-4.7-2c-1.3-1.3-2-2.9-2-4.7v-10
			c0-1.8,0.7-3.4,2-4.7c1.3-1.3,2.9-2,4.7-2h6.7v-6.7h6.7V1440.9z M508.8,1420.9h-3.3c-0.9,0-1.7,0.3-2.4,1s-1,1.4-1,2.4v10
			c0,0.9,0.3,1.7,1,2.3c0.7,0.7,1.4,1,2.4,1c0.9,0,1.7-0.3,2.4-1c0.7-0.7,1-1.4,1-2.3V1420.9z"/>
		<path class="st0" d="M545.2,1427.6v-3.3c0-0.9-0.3-1.7-1-2.4c-0.7-0.7-1.4-1-2.4-1h-3.3c-2,0-3.1,1.1-3.3,3.3h-3.3
			c0.5-4.5,2.7-6.7,6.7-6.7h6.7c1.8,0,3.4,0.7,4.7,2c1.3,1.3,2,2.9,2,4.7v16.7h-6.7v-3.3c-0.3,2.2-1.4,3.3-3.3,3.3h-3.3
			c-1.8,0-3.4-0.7-4.7-2c-1.3-1.3-2-2.9-2-4.7v0c0-1.8,0.7-3.4,2-4.7c1.3-1.3,2.9-2,4.7-2H545.2z M545.2,1430.9h-3.3
			c-0.9,0-1.7,0.3-2.4,1c-0.7,0.7-1,1.4-1,2.3v0c0,0.9,0.3,1.7,1,2.3c0.7,0.7,1.4,1,2.4,1c0.9,0,1.7-0.3,2.4-1c0.7-0.7,1-1.4,1-2.3
			V1430.9z"/>
		<path class="st0" d="M568.3,1440.9v-30h6.7v10c0.1-1.1,0.5-2,1-2.5c0.6-0.6,1.3-0.8,2.3-0.8h3.3c1.8,0,3.4,0.7,4.7,2
			c1.3,1.3,2,2.9,2,4.7v10c0,1.8-0.7,3.4-2,4.7c-1.3,1.3-2.9,2-4.7,2H568.3z M574.9,1437.6h3.3c0.9,0,1.7-0.3,2.4-1
			c0.7-0.7,1-1.4,1-2.3v-10c0-0.9-0.3-1.7-1-2.4c-0.7-0.7-1.4-1-2.4-1c-0.9,0-1.7,0.3-2.4,1s-1,1.4-1,2.4V1437.6z"/>
		<path class="st0" d="M608.3,1427.6v-3.3c0-0.9-0.3-1.7-1-2.4c-0.7-0.7-1.4-1-2.4-1h-3.3c-2,0-3.1,1.1-3.3,3.3h-3.3
			c0.5-4.5,2.7-6.7,6.7-6.7h6.7c1.8,0,3.4,0.7,4.7,2c1.3,1.3,2,2.9,2,4.7v16.7h-6.7v-3.3c-0.3,2.2-1.4,3.3-3.3,3.3h-3.3
			c-1.8,0-3.4-0.7-4.7-2c-1.3-1.3-2-2.9-2-4.7v0c0-1.8,0.7-3.4,2-4.7c1.3-1.3,2.9-2,4.7-2H608.3z M608.3,1430.9h-3.3
			c-0.9,0-1.7,0.3-2.4,1c-0.7,0.7-1,1.4-1,2.3v0c0,0.9,0.3,1.7,1,2.3c0.7,0.7,1.4,1,2.4,1c0.9,0,1.7-0.3,2.4-1c0.7-0.7,1-1.4,1-2.3
			V1430.9z"/>
		<path class="st0" d="M621.6,1440.9v-30h6.7v30H621.6z"/>
		<path class="st0" d="M634.9,1440.9v-30h6.7v30H634.9z"/>
		<path class="st0" d="M664.7,1417.6h6.7c1.8,0,3.4,0.7,4.7,2c1.3,1.3,2,2.9,2,4.7v10c0,1.8-0.7,3.4-2,4.7c-1.3,1.3-2.9,2-4.7,2
			h-6.7c-1.8,0-3.4-0.7-4.7-2c-1.3-1.3-2-2.9-2-4.7v-10c0-1.8,0.7-3.4,2-4.7C661.3,1418.2,662.9,1417.6,664.7,1417.6z M664.7,1424.3
			v10c0,0.9,0.3,1.7,1,2.3c0.7,0.7,1.4,1,2.4,1c0.9,0,1.7-0.3,2.4-1c0.7-0.7,1-1.4,1-2.3v-10c0-0.9-0.3-1.7-1-2.4
			c-0.7-0.7-1.4-1-2.4-1c-0.9,0-1.7,0.3-2.4,1S664.7,1423.4,664.7,1424.3z"/>
		<path class="st0" d="M688,1440.9v-20h-3.3v-3.3h3.3v-0.3c0-1.7,0.6-3.2,1.9-4.5s2.7-1.9,4.5-1.9h7v3.3h-3.6
			c-0.8,0-1.5,0.3-2.1,0.9c-0.6,0.6-0.9,1.3-0.9,2.1v0.3h3.3v3.3h-3.3v20H688z"/>
		<path class="st0" d="M717.8,1410.9h6.7v6.7h3.3v3.3h-3.3v13.3c0,1.1,0.4,1.9,1.1,2.5c0.7,0.6,1.4,0.9,2,0.9h0.3v3.3h-3.3
			c-1.8,0-3.4-0.7-4.7-2c-1.3-1.3-2-2.9-2-4.7v-13.3h-3.3v-3.3h3.3V1410.9z"/>
		<path class="st0" d="M734.5,1440.9v-30h6.7v10c0.1-1.1,0.5-2,1-2.5c0.6-0.6,1.3-0.8,2.3-0.8h3.3c1.8,0,3.4,0.7,4.7,2
			c1.3,1.3,2,2.9,2,4.7v16.7h-6.7v-16.7c0-0.9-0.3-1.7-1-2.4c-0.7-0.7-1.4-1-2.4-1c-0.9,0-1.7,0.3-2.4,1s-1,1.4-1,2.4v16.7H734.5z"
			/>
		<path class="st0" d="M767.8,1440.9h-6.7v-23.3h6.7v6.7c0.3-2.2,0.9-3.9,2.1-5c1.1-1.1,2.7-1.7,4.6-1.7h3.3v6.7h-6.7
			c-0.9,0-1.7,0.3-2.4,1c-0.7,0.7-1,1.4-1,2.3V1440.9z"/>
		<path class="st0" d="M801.1,1430.9h-13.3v3.3c0,0.9,0.3,1.7,1,2.3c0.7,0.7,1.4,1,2.4,1h3.3c2.2,0,3.3-1.1,3.3-3.3h3.3
			c-0.5,4.4-2.7,6.7-6.7,6.7h-6.7c-1.8,0-3.4-0.7-4.7-2c-1.3-1.3-2-2.9-2-4.7v-10c0-1.8,0.7-3.4,2-4.7c1.3-1.3,2.9-2,4.7-2h6.7
			c1.8,0,3.4,0.7,4.7,2c1.3,1.3,2,2.9,2,4.7V1430.9z M787.8,1427.6h6.7v-3.3c0-0.9-0.3-1.7-1-2.4c-0.7-0.7-1.4-1-2.4-1
			c-0.9,0-1.7,0.3-2.4,1s-1,1.4-1,2.4V1427.6z"/>
		<path class="st0" d="M821.1,1427.6v-3.3c0-0.9-0.3-1.7-1-2.4c-0.7-0.7-1.4-1-2.4-1h-3.3c-2,0-3.1,1.1-3.3,3.3h-3.3
			c0.5-4.5,2.7-6.7,6.7-6.7h6.7c1.8,0,3.4,0.7,4.7,2c1.3,1.3,2,2.9,2,4.7v16.7h-6.7v-3.3c-0.3,2.2-1.4,3.3-3.3,3.3h-3.3
			c-1.8,0-3.4-0.7-4.7-2c-1.3-1.3-2-2.9-2-4.7v0c0-1.8,0.7-3.4,2-4.7c1.3-1.3,2.9-2,4.7-2H821.1z M821.1,1430.9h-3.3
			c-0.9,0-1.7,0.3-2.4,1c-0.7,0.7-1,1.4-1,2.3v0c0,0.9,0.3,1.7,1,2.3c0.7,0.7,1.4,1,2.4,1c0.9,0,1.7-0.3,2.4-1c0.7-0.7,1-1.4,1-2.3
			V1430.9z"/>
		<path class="st0" d="M854.4,1440.9h-6.7v-3.3c-0.3,2.2-1.4,3.3-3.3,3.3h-3.3c-1.8,0-3.4-0.7-4.7-2c-1.3-1.3-2-2.9-2-4.7v-10
			c0-1.8,0.7-3.4,2-4.7c1.3-1.3,2.9-2,4.7-2h6.7v-6.7h6.7V1440.9z M847.8,1420.9h-3.3c-0.9,0-1.7,0.3-2.4,1s-1,1.4-1,2.4v10
			c0,0.9,0.3,1.7,1,2.3c0.7,0.7,1.4,1,2.4,1c0.9,0,1.7-0.3,2.4-1c0.7-0.7,1-1.4,1-2.3V1420.9z"/>
	</g>
	<g>
		<path class="st0" d="M199.5,1495.1h-3.3c-0.3-2.2-1.3-3.3-3.2-3.3c-1.2,0-2.1,0.2-2.7,0.7c-0.6,0.5-0.9,1.2-0.9,2.1
			c0,1,1.6,2.3,4.9,4c2.6,1.4,4.2,2.6,4.6,3.5c0.4,0.9,0.6,1.9,0.6,3c0,1.9-0.7,3.4-2,4.7c-1.3,1.3-2.9,2-4.7,2h-3.3
			c-4.4,0-6.7-2.2-6.7-6.7h3.3c0.3,2.2,1.3,3.3,3.1,3.3c1.2,0,2.1-0.2,2.7-0.7s0.9-1.2,0.9-2.1c0-0.9-1.6-2.3-4.8-4
			c-2.6-1.4-4.2-2.6-4.6-3.5c-0.4-0.9-0.6-1.9-0.6-3c0-1.9,0.7-3.5,2-4.8c1.3-1.3,2.9-2,4.7-2h3.3
			C197,1488.5,199.2,1490.7,199.5,1495.1z"/>
		<path class="st0" d="M212.8,1488.5h6.7c1.8,0,3.4,0.7,4.7,2c1.3,1.3,2,2.9,2,4.7v10c0,1.8-0.7,3.4-2,4.7c-1.3,1.3-2.9,2-4.7,2
			h-6.7c-1.8,0-3.4-0.7-4.7-2c-1.3-1.3-2-2.9-2-4.7v-10c0-1.8,0.7-3.4,2-4.7C209.5,1489.1,211,1488.5,212.8,1488.5z M212.8,1495.1
			v10c0,0.9,0.3,1.7,1,2.3c0.7,0.7,1.4,1,2.4,1c0.9,0,1.7-0.3,2.4-1c0.7-0.7,1-1.4,1-2.3v-10c0-0.9-0.3-1.7-1-2.4
			c-0.7-0.7-1.4-1-2.4-1c-0.9,0-1.7,0.3-2.4,1S212.8,1494.2,212.8,1495.1z"/>
		<path class="st0" d="M246,1481.8h6.7v6.7h3.3v3.3h-3.3v13.3c0,1.1,0.4,1.9,1.1,2.5c0.7,0.6,1.4,0.9,2,0.9h0.3v3.3h-3.3
			c-1.8,0-3.4-0.7-4.7-2c-1.3-1.3-2-2.9-2-4.7v-13.3h-3.3v-3.3h3.3V1481.8z"/>
		<path class="st0" d="M262.6,1511.8v-30h6.7v10c0.1-1.1,0.5-2,1-2.5c0.6-0.6,1.3-0.8,2.3-0.8h3.3c1.8,0,3.4,0.7,4.7,2
			c1.3,1.3,2,2.9,2,4.7v16.7H276v-16.7c0-0.9-0.3-1.7-1-2.4c-0.7-0.7-1.4-1-2.4-1c-0.9,0-1.7,0.3-2.4,1s-1,1.4-1,2.4v16.7H262.6z"/>
		<path class="st0" d="M302.6,1498.5v-3.3c0-0.9-0.3-1.7-1-2.4c-0.7-0.7-1.4-1-2.4-1h-3.3c-2,0-3.1,1.1-3.3,3.3h-3.3
			c0.5-4.5,2.7-6.7,6.7-6.7h6.7c1.8,0,3.4,0.7,4.7,2c1.3,1.3,2,2.9,2,4.7v16.7h-6.7v-3.3c-0.3,2.2-1.4,3.3-3.3,3.3h-3.3
			c-1.8,0-3.4-0.7-4.7-2c-1.3-1.3-2-2.9-2-4.7v0c0-1.8,0.7-3.4,2-4.7c1.3-1.3,2.9-2,4.7-2H302.6z M302.6,1501.8h-3.3
			c-0.9,0-1.7,0.3-2.4,1c-0.7,0.7-1,1.4-1,2.3v0c0,0.9,0.3,1.7,1,2.3c0.7,0.7,1.4,1,2.4,1c0.9,0,1.7-0.3,2.4-1c0.7-0.7,1-1.4,1-2.3
			V1501.8z"/>
		<path class="st0" d="M319.3,1481.8h6.7v6.7h3.3v3.3h-3.3v13.3c0,1.1,0.4,1.9,1.1,2.5c0.7,0.6,1.4,0.9,2,0.9h0.3v3.3h-3.3
			c-1.8,0-3.4-0.7-4.7-2c-1.3-1.3-2-2.9-2-4.7v-13.3h-3.3v-3.3h3.3V1481.8z"/>
		<path class="st0" d="M345.7,1511.8v-30h6.7v10c0.1-1.1,0.5-2,1-2.5c0.6-0.6,1.3-0.8,2.3-0.8h3.3c1.8,0,3.4,0.7,4.7,2
			c1.3,1.3,2,2.9,2,4.7v16.7H359v-16.7c0-0.9-0.3-1.7-1-2.4c-0.7-0.7-1.4-1-2.4-1c-0.9,0-1.7,0.3-2.4,1s-1,1.4-1,2.4v16.7H345.7z"/>
		<path class="st0" d="M392.3,1501.8H379v3.3c0,0.9,0.3,1.7,1,2.3c0.7,0.7,1.4,1,2.4,1h3.3c2.2,0,3.3-1.1,3.3-3.3h3.3
			c-0.5,4.4-2.7,6.7-6.7,6.7H379c-1.8,0-3.4-0.7-4.7-2c-1.3-1.3-2-2.9-2-4.7v-10c0-1.8,0.7-3.4,2-4.7c1.3-1.3,2.9-2,4.7-2h6.7
			c1.8,0,3.4,0.7,4.7,2c1.3,1.3,2,2.9,2,4.7V1501.8z M379,1498.5h6.7v-3.3c0-0.9-0.3-1.7-1-2.4c-0.7-0.7-1.4-1-2.4-1
			c-0.9,0-1.7,0.3-2.4,1s-1,1.4-1,2.4V1498.5z"/>
		<path class="st0" d="M425.4,1495.1h-3.3c-0.3-2.2-1.4-3.3-3.3-3.3c-0.9,0-1.7,0.3-2.4,1s-1,1.4-1,2.4v10c0,0.9,0.3,1.7,1,2.3
			c0.7,0.7,1.4,1,2.4,1c2,0,3.1-1.1,3.3-3.3h3.3c-0.3,4.4-2.5,6.7-6.7,6.7h-3.3c-1.8,0-3.4-0.7-4.7-2c-1.3-1.3-2-2.9-2-4.7v-10
			c0-1.8,0.7-3.4,2-4.7c1.3-1.3,2.9-2,4.7-2h3.3C423,1488.5,425.2,1490.7,425.4,1495.1z"/>
		<path class="st0" d="M438.8,1488.5h6.7c1.8,0,3.4,0.7,4.7,2c1.3,1.3,2,2.9,2,4.7v10c0,1.8-0.7,3.4-2,4.7c-1.3,1.3-2.9,2-4.7,2
			h-6.7c-1.8,0-3.4-0.7-4.7-2c-1.3-1.3-2-2.9-2-4.7v-10c0-1.8,0.7-3.4,2-4.7C435.4,1489.1,437,1488.5,438.8,1488.5z M438.8,1495.1
			v10c0,0.9,0.3,1.7,1,2.3c0.7,0.7,1.4,1,2.4,1c0.9,0,1.7-0.3,2.4-1c0.7-0.7,1-1.4,1-2.3v-10c0-0.9-0.3-1.7-1-2.4
			c-0.7-0.7-1.4-1-2.4-1c-0.9,0-1.7,0.3-2.4,1S438.8,1494.2,438.8,1495.1z"/>
		<path class="st0" d="M478.8,1488.5v23.3h-6.7v-3.3c-0.3,2.2-1.4,3.3-3.3,3.3h-3.3c-1.8,0-3.4-0.7-4.7-2c-1.3-1.3-2-2.9-2-4.7
			v-16.7h6.7v16.7c0,0.9,0.3,1.7,1,2.3c0.7,0.7,1.4,1,2.4,1c0.9,0,1.7-0.3,2.4-1c0.7-0.7,1-1.4,1-2.3v-16.7H478.8z"/>
		<path class="st0" d="M485.4,1511.8v-30h6.7v30H485.4z"/>
		<path class="st0" d="M518.8,1511.8h-6.7v-3.3c-0.3,2.2-1.4,3.3-3.3,3.3h-3.3c-1.8,0-3.4-0.7-4.7-2c-1.3-1.3-2-2.9-2-4.7v-10
			c0-1.8,0.7-3.4,2-4.7c1.3-1.3,2.9-2,4.7-2h6.7v-6.7h6.7V1511.8z M512.1,1491.8h-3.3c-0.9,0-1.7,0.3-2.4,1s-1,1.4-1,2.4v10
			c0,0.9,0.3,1.7,1,2.3c0.7,0.7,1.4,1,2.4,1c0.9,0,1.7-0.3,2.4-1c0.7-0.7,1-1.4,1-2.3V1491.8z"/>
	</g>
	<g>
		<path class="st0" d="M538.4,1511.8v-20h-3.3v-3.3h3.3v-0.3c0-1.5,0.6-2.9,1.9-4.3c1.2-1.4,2.8-2.1,4.8-2.1h6.7v3.3h-3.5
			c-0.9,0-1.6,0.3-2.2,1c-0.6,0.7-0.9,1.3-0.9,2v0.3h16.7v23.3h-6.7v-20h-10v20H538.4z M555.1,1485.1v-3.3h6.7v3.3H555.1z"/>
	</g>
	<g>
	</g>
	<g>
		<path class="st0" d="M568.5,1511.8v-23.3h6.7v3.3c0.1-1.1,0.5-2,1-2.5c0.6-0.6,1.3-0.8,2.3-0.8h3.3c1.8,0,3.4,0.7,4.7,2
			c1.3,1.3,2,2.9,2,4.7v16.7h-6.7v-16.7c0-0.9-0.3-1.7-1-2.4c-0.7-0.7-1.4-1-2.4-1c-0.9,0-1.7,0.3-2.4,1s-1,1.4-1,2.4v16.7H568.5z"
			/>
		<path class="st0" d="M615.2,1511.8h-6.7v-3.3c-0.3,2.2-1.4,3.3-3.3,3.3h-3.3c-1.8,0-3.4-0.7-4.7-2c-1.3-1.3-2-2.9-2-4.7v-10
			c0-1.8,0.7-3.4,2-4.7c1.3-1.3,2.9-2,4.7-2h6.7v-6.7h6.7V1511.8z M608.5,1491.8h-3.3c-0.9,0-1.7,0.3-2.4,1s-1,1.4-1,2.4v10
			c0,0.9,0.3,1.7,1,2.3c0.7,0.7,1.4,1,2.4,1c0.9,0,1.7-0.3,2.4-1c0.7-0.7,1-1.4,1-2.3V1491.8z"/>
		<path class="st0" d="M631.6,1511.8v-30h6.7v10c0.1-1.1,0.5-2,1-2.5c0.6-0.6,1.3-0.8,2.3-0.8h3.3c1.8,0,3.4,0.7,4.7,2
			c1.3,1.3,2,2.9,2,4.7v16.7h-6.7v-16.7c0-0.9-0.3-1.7-1-2.4c-0.7-0.7-1.4-1-2.4-1c-0.9,0-1.7,0.3-2.4,1s-1,1.4-1,2.4v16.7H631.6z"
			/>
		<path class="st0" d="M658.3,1485.1v-3.3h6.7v3.3H658.3z M658.3,1511.8v-23.3h6.7v23.3H658.3z"/>
		<path class="st0" d="M688.3,1495.1h-3.3c-0.3-2.2-1.3-3.3-3.2-3.3c-1.2,0-2.1,0.2-2.7,0.7c-0.6,0.5-0.9,1.2-0.9,2.1
			c0,1,1.6,2.3,4.9,4c2.6,1.4,4.2,2.6,4.6,3.5c0.4,0.9,0.6,1.9,0.6,3c0,1.9-0.7,3.4-2,4.7c-1.3,1.3-2.9,2-4.7,2h-3.3
			c-4.4,0-6.7-2.2-6.7-6.7h3.3c0.3,2.2,1.3,3.3,3.1,3.3c1.2,0,2.1-0.2,2.7-0.7s0.9-1.2,0.9-2.1c0-0.9-1.6-2.3-4.8-4
			c-2.6-1.4-4.2-2.6-4.6-3.5c-0.4-0.9-0.6-1.9-0.6-3c0-1.9,0.7-3.5,2-4.8c1.3-1.3,2.9-2,4.7-2h3.3
			C685.8,1488.5,688,1490.7,688.3,1495.1z"/>
		<path class="st0" d="M704.7,1488.5h6.7v20h3.3c0.9,0,1.7-0.3,2.4-1c0.7-0.7,1-1.4,1-2.3v-16.7h6.7v20h3.3c0.9,0,1.7-0.3,2.3-1
			c0.7-0.7,1-1.4,1-2.3v-16.7h6.7v12c0,3.1-1.1,5.8-3.4,8c-2.2,2.2-4.9,3.4-8,3.4h-8.6v-1.1c-1.3,0.7-2.9,1.1-4.7,1.1h-8.6V1488.5z"
			/>
		<path class="st0" d="M758.1,1498.5v-3.3c0-0.9-0.3-1.7-1-2.4c-0.7-0.7-1.4-1-2.4-1h-3.3c-2,0-3.1,1.1-3.3,3.3h-3.3
			c0.5-4.5,2.7-6.7,6.7-6.7h6.7c1.8,0,3.4,0.7,4.7,2c1.3,1.3,2,2.9,2,4.7v16.7h-6.7v-3.3c-0.3,2.2-1.4,3.3-3.3,3.3h-3.3
			c-1.8,0-3.4-0.7-4.7-2c-1.3-1.3-2-2.9-2-4.7v0c0-1.8,0.7-3.4,2-4.7c1.3-1.3,2.9-2,4.7-2H758.1z M758.1,1501.8h-3.3
			c-0.9,0-1.7,0.3-2.4,1c-0.7,0.7-1,1.4-1,2.3v0c0,0.9,0.3,1.7,1,2.3c0.7,0.7,1.4,1,2.4,1c0.9,0,1.7-0.3,2.4-1c0.7-0.7,1-1.4,1-2.3
			V1501.8z"/>
		<path class="st0" d="M774.7,1515.1c0.2,2.2,1.3,3.3,3.3,3.3h3.3c0.9,0,1.7-0.3,2.4-1c0.7-0.7,1-1.4,1-2.3v-6.7
			c-0.3,2.2-1.4,3.3-3.3,3.3H778c-1.8,0-3.4-0.7-4.7-2c-1.3-1.3-2-2.9-2-4.7v-16.7h6.7v16.7c0,0.9,0.3,1.7,1,2.3
			c0.7,0.7,1.4,1,2.4,1c0.9,0,1.7-0.3,2.4-1c0.7-0.7,1-1.4,1-2.3v-16.7h6.7v26.7c0,1.8-0.7,3.4-2,4.7c-1.3,1.3-2.9,2-4.7,2H778
			c-3.9,0-6.1-2.2-6.7-6.7H774.7z"/>
		<path class="st0" d="M814.4,1488.5h6.7c1.8,0,3.4,0.7,4.7,2c1.3,1.3,2,2.9,2,4.7v10c0,1.8-0.7,3.4-2,4.7c-1.3,1.3-2.9,2-4.7,2
			h-6.7c-1.8,0-3.4-0.7-4.7-2c-1.3-1.3-2-2.9-2-4.7v-10c0-1.8,0.7-3.4,2-4.7C811.1,1489.1,812.6,1488.5,814.4,1488.5z M814.4,1495.1
			v10c0,0.9,0.3,1.7,1,2.3c0.7,0.7,1.4,1,2.4,1c0.9,0,1.7-0.3,2.4-1c0.7-0.7,1-1.4,1-2.3v-10c0-0.9-0.3-1.7-1-2.4
			c-0.7-0.7-1.4-1-2.4-1c-0.9,0-1.7,0.3-2.4,1S814.4,1494.2,814.4,1495.1z"/>
		<path class="st0" d="M854.4,1488.5v23.3h-6.7v-3.3c-0.3,2.2-1.4,3.3-3.3,3.3h-3.3c-1.8,0-3.4-0.7-4.7-2c-1.3-1.3-2-2.9-2-4.7
			v-16.7h6.7v16.7c0,0.9,0.3,1.7,1,2.3c0.7,0.7,1.4,1,2.4,1c0.9,0,1.7-0.3,2.4-1c0.7-0.7,1-1.4,1-2.3v-16.7H854.4z"/>
		<path class="st0" d="M864.4,1481.8h6.7v6.7h3.3v3.3h-3.3v13.3c0,1.1,0.4,1.9,1.1,2.5c0.7,0.6,1.4,0.9,2,0.9h0.3v3.3h-3.3
			c-1.8,0-3.4-0.7-4.7-2c-1.3-1.3-2-2.9-2-4.7v-13.3h-3.3v-3.3h3.3V1481.8z"/>
		<path class="st0" d="M897.5,1488.5h6.7c1.8,0,3.4,0.7,4.7,2c1.3,1.3,2,2.9,2,4.7v10c0,1.8-0.7,3.4-2,4.7c-1.3,1.3-2.9,2-4.7,2
			h-6.7c-1.8,0-3.4-0.7-4.7-2c-1.3-1.3-2-2.9-2-4.7v-10c0-1.8,0.7-3.4,2-4.7C894.1,1489.1,895.7,1488.5,897.5,1488.5z M897.5,1495.1
			v10c0,0.9,0.3,1.7,1,2.3c0.7,0.7,1.4,1,2.4,1c0.9,0,1.7-0.3,2.4-1c0.7-0.7,1-1.4,1-2.3v-10c0-0.9-0.3-1.7-1-2.4
			c-0.7-0.7-1.4-1-2.4-1c-0.9,0-1.7,0.3-2.4,1S897.5,1494.2,897.5,1495.1z"/>
		<path class="st0" d="M920.9,1511.8v-20h-3.3v-3.3h3.3v-0.3c0-1.7,0.6-3.2,1.9-4.5s2.7-1.9,4.5-1.9h7v3.3h-3.6
			c-0.8,0-1.5,0.3-2.1,0.9c-0.6,0.6-0.9,1.3-0.9,2.1v0.3h3.3v3.3h-3.3v20H920.9z"/>
	</g>
	<g>
	</g>
	<g>
		<path class="st0" d="M327.1,1552.7h6.7v6.7h3.3v3.3h-3.3v13.3c0,1.1,0.4,1.9,1.1,2.5c0.7,0.6,1.4,0.9,2,0.9h0.3v3.3h-3.3
			c-1.8,0-3.4-0.7-4.7-2c-1.3-1.3-2-2.9-2-4.7v-13.3h-3.3v-3.3h3.3V1552.7z"/>
		<path class="st0" d="M343.8,1582.7v-30h6.7v10c0.1-1.1,0.5-2,1-2.5c0.6-0.6,1.3-0.8,2.3-0.8h3.3c1.8,0,3.4,0.7,4.7,2
			c1.3,1.3,2,2.9,2,4.7v16.7h-6.7V1566c0-0.9-0.3-1.7-1-2.4c-0.7-0.7-1.4-1-2.4-1c-0.9,0-1.7,0.3-2.4,1s-1,1.4-1,2.4v16.7H343.8z"/>
		<path class="st0" d="M390.4,1572.7h-13.3v3.3c0,0.9,0.3,1.7,1,2.3c0.7,0.7,1.4,1,2.4,1h3.3c2.2,0,3.3-1.1,3.3-3.3h3.3
			c-0.5,4.4-2.7,6.7-6.7,6.7h-6.7c-1.8,0-3.4-0.7-4.7-2c-1.3-1.3-2-2.9-2-4.7v-10c0-1.8,0.7-3.4,2-4.7c1.3-1.3,2.9-2,4.7-2h6.7
			c1.8,0,3.4,0.7,4.7,2c1.3,1.3,2,2.9,2,4.7V1572.7z M377.1,1569.3h6.7v-3.3c0-0.9-0.3-1.7-1-2.4c-0.7-0.7-1.4-1-2.4-1
			c-0.9,0-1.7,0.3-2.4,1s-1,1.4-1,2.4V1569.3z"/>
		<path class="st0" d="M406.8,1582.7v-30h1.5l14.2,14.2l14.2-14.2h3.3v30h-6.7v-18.3l-11.7,11.7l-11.6-11.7v18.3H406.8z"/>
		<path class="st0" d="M446.8,1556v-3.3h6.7v3.3H446.8z M446.8,1582.7v-23.3h6.7v23.3H446.8z"/>
		<path class="st0" d="M460.2,1582.7v-23.3h6.7v3.3c0.1-1.1,0.5-2,1-2.5c0.6-0.6,1.3-0.8,2.3-0.8h3.3c1.8,0,3.4,0.7,4.7,2
			c1.3,1.3,2,2.9,2,4.7v16.7h-6.7V1566c0-0.9-0.3-1.7-1-2.4c-0.7-0.7-1.4-1-2.4-1c-0.9,0-1.7,0.3-2.4,1s-1,1.4-1,2.4v16.7H460.2z"/>
		<path class="st0" d="M493.5,1559.3h6.7c1.8,0,3.4,0.7,4.7,2c1.3,1.3,2,2.9,2,4.7v10c0,1.8-0.7,3.4-2,4.7c-1.3,1.3-2.9,2-4.7,2
			h-6.7c-1.8,0-3.4-0.7-4.7-2c-1.3-1.3-2-2.9-2-4.7v-10c0-1.8,0.7-3.4,2-4.7C490.1,1560,491.7,1559.3,493.5,1559.3z M493.5,1566v10
			c0,0.9,0.3,1.7,1,2.3c0.7,0.7,1.4,1,2.4,1c0.9,0,1.7-0.3,2.4-1c0.7-0.7,1-1.4,1-2.3v-10c0-0.9-0.3-1.7-1-2.4c-0.7-0.7-1.4-1-2.4-1
			c-0.9,0-1.7,0.3-2.4,1S493.5,1565.1,493.5,1566z"/>
		<path class="st0" d="M513.5,1562.7v-10h3.3v10H513.5z"/>
		<path class="st0" d="M540.1,1566h-3.3c-0.3-2.2-1.3-3.3-3.2-3.3c-1.2,0-2.1,0.2-2.7,0.7c-0.6,0.5-0.9,1.2-0.9,2.1
			c0,1,1.6,2.3,4.9,4c2.6,1.4,4.2,2.6,4.6,3.5c0.4,0.9,0.6,1.9,0.6,3c0,1.9-0.7,3.4-2,4.7c-1.3,1.3-2.9,2-4.7,2h-3.3
			c-4.4,0-6.7-2.2-6.7-6.7h3.3c0.3,2.2,1.3,3.3,3.1,3.3c1.2,0,2.1-0.2,2.7-0.7s0.9-1.2,0.9-2.1c0-0.9-1.6-2.3-4.8-4
			c-2.6-1.4-4.2-2.6-4.6-3.5c-0.4-0.9-0.6-1.9-0.6-3c0-1.9,0.7-3.5,2-4.8c1.3-1.3,2.9-2,4.7-2h3.3
			C537.7,1559.3,539.9,1561.5,540.1,1566z"/>
		<path class="st0" d="M556.6,1582.7v-30h6.7v30H556.6z"/>
		<path class="st0" d="M583.3,1569.3v-3.3c0-0.9-0.3-1.7-1-2.4c-0.7-0.7-1.4-1-2.4-1h-3.3c-2,0-3.1,1.1-3.3,3.3h-3.3
			c0.5-4.5,2.7-6.7,6.7-6.7h6.7c1.8,0,3.4,0.7,4.7,2c1.3,1.3,2,2.9,2,4.7v16.7h-6.7v-3.3c-0.3,2.2-1.4,3.3-3.3,3.3h-3.3
			c-1.8,0-3.4-0.7-4.7-2c-1.3-1.3-2-2.9-2-4.7v0c0-1.8,0.7-3.4,2-4.7c1.3-1.3,2.9-2,4.7-2H583.3z M583.3,1572.7h-3.3
			c-0.9,0-1.7,0.3-2.4,1c-0.7,0.7-1,1.4-1,2.3v0c0,0.9,0.3,1.7,1,2.3c0.7,0.7,1.4,1,2.4,1c0.9,0,1.7-0.3,2.4-1c0.7-0.7,1-1.4,1-2.3
			V1572.7z"/>
		<path class="st0" d="M596.6,1582.7v-30h6.7v10c0.1-1.1,0.5-2,1-2.5c0.6-0.6,1.3-0.8,2.3-0.8h3.3c1.8,0,3.4,0.7,4.7,2
			c1.3,1.3,2,2.9,2,4.7v10c0,1.8-0.7,3.4-2,4.7c-1.3,1.3-2.9,2-4.7,2H596.6z M603.3,1579.3h3.3c0.9,0,1.7-0.3,2.4-1
			c0.7-0.7,1-1.4,1-2.3v-10c0-0.9-0.3-1.7-1-2.4c-0.7-0.7-1.4-1-2.4-1c-0.9,0-1.7,0.3-2.4,1s-1,1.4-1,2.4V1579.3z"/>
		<path class="st0" d="M626.6,1586c0.2,2.2,1.3,3.3,3.3,3.3h3.3c0.9,0,1.7-0.3,2.4-1c0.7-0.7,1-1.4,1-2.3v-6.7
			c-0.3,2.2-1.4,3.3-3.3,3.3h-3.3c-1.8,0-3.4-0.7-4.7-2c-1.3-1.3-2-2.9-2-4.7v-16.7h6.7v16.7c0,0.9,0.3,1.7,1,2.3
			c0.7,0.7,1.4,1,2.4,1c0.9,0,1.7-0.3,2.4-1c0.7-0.7,1-1.4,1-2.3v-16.7h6.7v26.7c0,1.8-0.7,3.4-2,4.7c-1.3,1.3-2.9,2-4.7,2h-6.7
			c-3.9,0-6.1-2.2-6.7-6.7H626.6z"/>
		<path class="st0" d="M656.6,1582.7h-6.7v-23.3h6.7v6.7c0.3-2.2,0.9-3.9,2.1-5c1.1-1.1,2.7-1.7,4.6-1.7h3.3v6.7h-6.7
			c-0.9,0-1.7,0.3-2.4,1c-0.7,0.7-1,1.4-1,2.3V1582.7z"/>
		<path class="st0" d="M669.9,1556v-3.3h6.7v3.3H669.9z M669.9,1582.7v-23.3h6.7v23.3H669.9z"/>
		<path class="st0" d="M683.3,1582.7v-23.3h6.7v3.3c0.1-1.1,0.5-2,1-2.5c0.6-0.6,1.3-0.8,2.3-0.8h3.3c1.8,0,3.4,0.7,4.7,2
			c1.3,1.3,2,2.9,2,4.7v16.7h-6.7V1566c0-0.9-0.3-1.7-1-2.4c-0.7-0.7-1.4-1-2.4-1c-0.9,0-1.7,0.3-2.4,1s-1,1.4-1,2.4v16.7H683.3z"/>
		<path class="st0" d="M713.3,1552.7h6.7v6.7h3.3v3.3h-3.3v13.3c0,1.1,0.4,1.9,1.1,2.5c0.7,0.6,1.4,0.9,2,0.9h0.3v3.3h-3.3
			c-1.8,0-3.4-0.7-4.7-2c-1.3-1.3-2-2.9-2-4.7v-13.3h-3.3v-3.3h3.3V1552.7z"/>
		<path class="st0" d="M729.9,1582.7v-30h6.7v10c0.1-1.1,0.5-2,1-2.5c0.6-0.6,1.3-0.8,2.3-0.8h3.3c1.8,0,3.4,0.7,4.7,2
			c1.3,1.3,2,2.9,2,4.7v16.7h-6.7V1566c0-0.9-0.3-1.7-1-2.4c-0.7-0.7-1.4-1-2.4-1c-0.9,0-1.7,0.3-2.4,1s-1,1.4-1,2.4v16.7H729.9z"/>
		<path class="st0" d="M756.6,1582.7v-6.7h6.7v6.7H756.6z"/>
		<path class="st0" d="M769.9,1582.7v-6.7h6.7v6.7H769.9z"/>
		<path class="st0" d="M783.3,1582.7v-6.7h6.7v6.7H783.3z"/>
	</g>
</g>
</svg>
