<svg id="图层_1" data-name="图层 1" xmlns="http://www.w3.org/2000/svg" viewBox="0 0 1125 2436"><defs><style>.cls-1,.cls-2{fill:#040404;}.cls-2{font-size:123px;font-family:AvenirNext-Heavy, Avenir Next;}.cls-3{font-size:51px;fill:#fff;font-family:Krungthep, Krungthep;}</style></defs><title>2</title><path class="cls-1" d="M128.61,1323.44l-8.74-8.74h-2.09V1142.56l25.08-25.27h56L224,1142.56v.76l8.55,8.74v171.38Zm88-177.83-20.75-20.91H145.95l-20.75,20.91v161.68h40.66V1236.8h9.88v70.49h40.85Zm-50.73,49.58v-29.26h9.88v29.26Z"/><path class="cls-1" d="M255.15,1323.44l-8.74-8.74h-2.09V1117.29h80.94l25.08,25.27v.76l8.55,8.74v57.76l-15.2,15.58,6.65,6.65v.76l8.55,8.74v81.89Zm87.78-88.59-18.26-18.53,18.26-18.44v-52.27l-20.75-20.91H251.73v182.59H292.2V1236.8h9.88v70.49h40.85Zm-50.73-39.66v-29.26h9.88v29.26Z"/><path class="cls-1" d="M380.74,1323.44l-8.36-8.74h-2.09V1117.29h53.77v2.28l8.36,8.74v195.13Zm36.1-198.74H377.7v182.59h39.14Z"/><path class="cls-1" d="M455,1323.44l-8.74-8.74H444.2V1142.56l25.08-25.27h56l25.08,25.27v.76l8.55,8.74v171.38Zm88-177.83-20.75-20.91H472.37l-20.75,20.91v161.68h40.66V1236.8h9.88v70.49H543Zm-50.73,49.58v-29.26h9.88v29.26Z"/><path class="cls-1" d="M660.61,1323.44h-79l-8.74-8.74h-2.09V1117.29h80.94l25.08,25.27v.76l8.55,8.74v146.49Zm8.74-177.83L648.6,1124.7H578.15v182.59H648.8l20.55-21Zm-50.54,120.64V1165.93h9.69v100.32Z"/><path class="cls-1" d="M707.54,1323.44l-8.74-8.74h-2.09V1117.29h80.94l25.08,25.27v.76l8.55,8.74v171.38Zm87.78-177.83-20.75-20.91H704.12v182.59h40.47V1166.12h9.88v141.17h40.85Z"/><path class="cls-1" d="M833.89,1323.44l-8.74-8.74h-2.09V1117.29h106v2.27l8.55,8.71v54H887.28v5.7h41.8v2.28l8.55,8.74v54.15H887.28V1259h41.8v2.27l8.55,8.71v53.42Zm87.78-57H871.32V1237h50.35v-41.61H871.32v-29.26h50.35V1124.7h-91.2v182.59h91.2Z"/><text class="cls-2" transform="translate(121.77 1070.52)">the thr</text><text class="cls-2" transform="translate(549.93 1070.52)">ead of</text><text class="cls-2" transform="translate(952.25 1070.52)"> </text><path d="M452.75,1796.48s-16.86,0-16.86,16.86v33.28s0,16.86,16.86,16.86H619s16.86,0,16.86-16.86v-33.28s0-16.86-16.86-16.86Z"/><text class="cls-3" transform="translate(455.96 1848.46)">ENTER</text></svg>